%TF.GenerationSoftware,Altium Limited,Altium Designer,25.4.2 (15)*%
G04 Layer_Color=65535*
%FSLAX45Y45*%
%MOMM*%
%TF.SameCoordinates,1AD04230-50D1-441F-A6C9-0C8C8D58179F*%
%TF.FilePolarity,Positive*%
%TF.FileFunction,Legend,Top*%
%TF.Part,Single*%
G01*
G75*
%TA.AperFunction,NonConductor*%
%ADD74C,0.25000*%
%ADD75C,0.60000*%
%ADD76C,0.12700*%
%ADD77C,0.20000*%
%ADD78C,0.35000*%
%ADD79C,0.30000*%
%ADD80C,0.15000*%
%ADD81C,0.25400*%
G36*
X1172733Y-2212405D02*
X1190138D01*
Y-2219825D01*
X1172733D01*
Y-2237229D01*
X1165382D01*
Y-2219825D01*
X1147839D01*
Y-2212405D01*
X1165382D01*
Y-2195000D01*
X1172733D01*
Y-2212405D01*
D02*
G37*
D74*
X2530000Y2550000D02*
G03*
X2530000Y2550000I-12500J0D01*
G01*
X507500Y-338000D02*
G03*
X507500Y-338000I-12500J0D01*
G01*
X2700000Y197000D02*
G03*
X2700000Y197000I-12500J0D01*
G01*
X1802190Y1085500D02*
G03*
X1802190Y1085500I-12500J0D01*
G01*
X-3670001Y-2700001D02*
G03*
X-3670001Y-2700001I-12500J0D01*
G01*
X1062500Y-1787500D02*
G03*
X1062500Y-1787500I-12500J0D01*
G01*
X-2865000Y-1155000D02*
G03*
X-2865000Y-1155000I-12500J0D01*
G01*
X-2745000Y1310000D02*
G03*
X-2745000Y1310000I-12500J0D01*
G01*
X1547498Y-1234999D02*
G03*
X1547498Y-1234999I-12500J0D01*
G01*
X877500Y1770000D02*
G03*
X877500Y1770000I-12500J0D01*
G01*
X2280000Y1977500D02*
G03*
X2280000Y1977500I-12500J0D01*
G01*
D75*
X270000Y-235000D02*
G03*
X270000Y-235000I-30000J0D01*
G01*
D76*
X359814Y-2958353D02*
G03*
X-95312Y-2874000I-455127J-1185646D01*
G01*
X356134Y-2956946D02*
G03*
X456785Y-2975600I100651J262206D01*
G01*
X247001Y-1477001D02*
X556998D01*
X-788699Y-2874001D02*
X-95309D01*
X456790Y-2975601D02*
X709901D01*
X4025001Y-2064999D02*
X6074999D01*
Y2065000D01*
X4025001D02*
X6074999D01*
X4025001Y-2064999D02*
Y2065000D01*
D77*
X3810000Y-1600000D02*
G03*
X3810000Y-1600000I-10000J0D01*
G01*
X2609001Y2689999D02*
Y2744503D01*
Y2350498D02*
Y2405001D01*
Y2350498D02*
X3066003D01*
Y2689999D02*
Y2744503D01*
Y2350498D02*
Y2405001D01*
X2609001Y2744503D02*
X3066003D01*
X-1874999Y2112692D02*
Y2154998D01*
X-1663600D02*
X-1585002D01*
X-1874999D02*
X-1796402D01*
X-1585002Y2112692D02*
Y2154998D01*
X-1758601Y2025001D02*
X-1701400D01*
X-259998Y845001D02*
X340001D01*
X-259998Y-335002D02*
X340001D01*
X-259998D02*
Y845001D01*
X340001Y-335002D02*
Y845001D01*
X1304998Y-1472499D02*
X3244999D01*
X1304998Y-2977500D02*
Y-2377501D01*
Y-2072498D02*
Y-1472499D01*
Y-2977500D02*
X3244999D01*
Y-2377501D01*
Y-2072498D02*
Y-1472499D01*
X3003498Y-203000D02*
Y342999D01*
X2736499Y-203000D02*
X3003498D01*
X2736499D02*
Y342999D01*
X3003498D01*
X2736499Y70000D02*
X3003498D01*
X1182502Y54001D02*
Y1189005D01*
X717499Y54001D02*
X1182502D01*
X717499D02*
Y1189005D01*
X1182502D01*
X-3960251Y1834998D02*
X-3885250D01*
X-3960251D02*
Y2684999D01*
X-3885250D01*
X-3610250Y1834998D02*
X-3485251D01*
X-3610250Y2684999D02*
X-3485251D01*
X2797500Y1648002D02*
X3182503D01*
X2797500Y2192003D02*
X3182503D01*
X2115131Y650001D02*
Y1140002D01*
Y650001D02*
X2304869D01*
Y1140002D01*
X2115131D02*
X2304869D01*
X-3907498Y1507499D02*
Y1557501D01*
Y1242500D02*
Y1292498D01*
Y1242500D02*
X-3492502D01*
Y1507499D02*
Y1557501D01*
Y1242500D02*
Y1292498D01*
X-3907498Y1557501D02*
X-3492502D01*
X-3143499Y-450001D02*
X-3093502Y-399999D01*
X-3143499Y-450001D02*
X-3093502Y-499998D01*
X-3143499Y-450001D02*
X-3043499D01*
X-3143499Y450002D02*
X-3093502Y500000D01*
X-3143499Y450002D02*
X-3093502Y400000D01*
X-3143499Y450002D02*
X-3043499D01*
X-3218500Y-699998D02*
Y699999D01*
X-1618498D01*
Y-699998D02*
Y699999D01*
X-3218500Y-699998D02*
X-1618498D01*
X-1407104Y795000D02*
Y925002D01*
X-1493500D02*
X-1407104D01*
Y-919998D02*
Y-790000D01*
X-1493500Y-919998D02*
X-1407104D01*
X-2208599Y2025001D02*
X-2151398D01*
X-2035000Y2112692D02*
Y2154998D01*
X-2325002D02*
X-2246399D01*
X-2113603D02*
X-2035000D01*
X-2325002Y2112692D02*
Y2154998D01*
X-3812499Y-2500001D02*
Y-2390004D01*
X1117498Y-1632500D02*
Y-1547501D01*
X982502Y-1632500D02*
Y-1547501D01*
X3080502Y992500D02*
X3126999D01*
X2732999D02*
X2779501D01*
X2732999Y517500D02*
Y992500D01*
X3080502Y517500D02*
X3126999D01*
X2732999D02*
X2779501D01*
X3126999D02*
Y992500D01*
X-689999Y1979998D02*
X-529999D01*
Y2050001D01*
X-689999Y1979998D02*
Y2050001D01*
X-2802499Y-2844998D02*
Y-2792501D01*
Y-2197501D02*
Y-2052502D01*
Y-1237498D02*
Y-1185001D01*
X-1572499D01*
Y-2844998D02*
Y-2792501D01*
Y-2197501D02*
Y-2052502D01*
Y-1237498D02*
Y-1185001D01*
X-2802499Y-2844998D02*
X-1572499D01*
X-3072952Y2907499D02*
X-2657952D01*
Y2592499D02*
Y2642501D01*
Y2857502D02*
Y2907499D01*
X-3072952Y2592499D02*
X-2657952D01*
X-3072952D02*
Y2642501D01*
Y2857502D02*
Y2907499D01*
X-2852501Y1229999D02*
Y1257502D01*
Y1612498D02*
Y1640001D01*
X-3262502D02*
X-3234999D01*
X-2879999D02*
X-2852501D01*
X-3262502Y1229999D02*
Y1257502D01*
Y1612498D02*
Y1640001D01*
Y1229999D02*
X-3234999D01*
X-2879999D02*
X-2852501D01*
X1574998Y2122499D02*
X1674998D01*
X1574998D02*
Y2442498D01*
X1674998D01*
Y2122499D02*
Y2442498D01*
X2089998Y2469999D02*
Y2629999D01*
Y2469999D02*
X2149998Y2529999D01*
X2029998D02*
X2089998Y2469999D01*
X2240000Y2250000D02*
Y2849998D01*
X1940001Y2250000D02*
X2240000D01*
X1940001D02*
Y2849998D01*
X2240000D01*
X1444998Y-757500D02*
Y-724998D01*
X1477500D01*
X1842498D02*
X1875000D01*
Y-757500D02*
Y-724998D01*
Y-1154999D02*
Y-1122498D01*
X1842498Y-1154999D02*
X1875000D01*
X1444998D02*
Y-1122498D01*
Y-1154999D02*
X1477500D01*
X587501Y1607500D02*
X787501D01*
X587501Y1667500D02*
X787501D01*
X587501Y1607500D02*
Y1667500D01*
X787501Y1607500D02*
Y1667500D01*
X2025052Y2222498D02*
X2069949D01*
X2025052Y1922499D02*
X2069949D01*
X-3043517Y-333226D02*
X-3110162D01*
X-3143484Y-299904D01*
X-3110162Y-266581D01*
X-3043517D01*
X-3093501D01*
Y-333226D01*
X-3043517Y-233258D02*
X-3143484D01*
X-3043517Y-166613D01*
X-3143484D01*
Y-133291D02*
Y-66646D01*
Y-99968D01*
X-3043517D01*
X-3143484Y33322D02*
Y-33323D01*
X-3043517D01*
Y33322D01*
X-3093501Y-33323D02*
Y-0D01*
X-3043517Y66645D02*
X-3143484D01*
X-3043517Y133290D01*
X-3143484D01*
X-3043517Y166613D02*
X-3143484D01*
X-3043517Y233258D01*
X-3143484D01*
X-3043517Y266581D02*
X-3110162D01*
X-3143484Y299903D01*
X-3110162Y333226D01*
X-3043517D01*
X-3093501D01*
Y266581D01*
X-749177Y1972500D02*
X-815822D01*
X-782500Y1939178D02*
Y2005823D01*
D78*
X-3228500Y-1025000D02*
G03*
X-3228500Y-1025000I-15000J0D01*
G01*
D79*
X-3010273Y2434995D02*
X-2923634D01*
D80*
X2710891Y2879984D02*
Y2780016D01*
X2760875D01*
X2777536Y2796677D01*
Y2863322D01*
X2760875Y2879984D01*
X2710891D01*
X2877504Y2780016D02*
X2810859D01*
X2877504Y2846661D01*
Y2863322D01*
X2860843Y2879984D01*
X2827520D01*
X2810859Y2863322D01*
X2910827D02*
X2927488Y2879984D01*
X2960811D01*
X2977472Y2863322D01*
Y2796677D01*
X2960811Y2780016D01*
X2927488D01*
X2910827Y2796677D01*
Y2863322D01*
X3010795Y2780016D02*
X3044117D01*
X3027456D01*
Y2879984D01*
X3010795Y2863322D01*
X3283371Y2349984D02*
X3216726D01*
Y2300000D01*
X3250048D01*
X3216726D01*
Y2250016D01*
X3383339D02*
X3316694D01*
X3383339Y2316661D01*
Y2333322D01*
X3366678Y2349984D01*
X3333355D01*
X3316694Y2333322D01*
X3416661D02*
X3433323Y2349984D01*
X3466645D01*
X3483306Y2333322D01*
Y2266677D01*
X3466645Y2250016D01*
X3433323D01*
X3416661Y2266677D01*
Y2333322D01*
X3516629D02*
X3533291Y2349984D01*
X3566613D01*
X3583274Y2333322D01*
Y2266677D01*
X3566613Y2250016D01*
X3533291D01*
X3516629Y2266677D01*
Y2333322D01*
X266726Y1188735D02*
Y1172074D01*
X300048Y1138751D01*
X333371Y1172074D01*
Y1188735D01*
X300048Y1138751D02*
Y1088767D01*
X366694Y1172074D02*
X383355Y1188735D01*
X416678D01*
X433339Y1172074D01*
Y1155412D01*
X416678Y1138751D01*
X400016D01*
X416678D01*
X433339Y1122090D01*
Y1105429D01*
X416678Y1088767D01*
X383355D01*
X366694Y1105429D01*
X466662Y1172074D02*
X483323Y1188735D01*
X516645D01*
X533307Y1172074D01*
Y1105429D01*
X516645Y1088767D01*
X483323D01*
X466662Y1105429D01*
Y1172074D01*
X566629D02*
X583291Y1188735D01*
X616613D01*
X633274Y1172074D01*
Y1105429D01*
X616613Y1088767D01*
X583291D01*
X566629Y1105429D01*
Y1172074D01*
X1476725Y-1350016D02*
Y-1433323D01*
X1493386Y-1449984D01*
X1526708D01*
X1543370Y-1433323D01*
Y-1350016D01*
X1626676Y-1449984D02*
Y-1350016D01*
X1576692Y-1400000D01*
X1643337D01*
X1676660Y-1366677D02*
X1693321Y-1350016D01*
X1726644D01*
X1743305Y-1366677D01*
Y-1433323D01*
X1726644Y-1449984D01*
X1693321D01*
X1676660Y-1433323D01*
Y-1366677D01*
X1776628D02*
X1793289Y-1350016D01*
X1826612D01*
X1843273Y-1366677D01*
Y-1433323D01*
X1826612Y-1449984D01*
X1793289D01*
X1776628Y-1433323D01*
Y-1366677D01*
X173387Y999984D02*
Y916677D01*
X190049Y900016D01*
X223371D01*
X240032Y916677D01*
Y999984D01*
X273355Y983322D02*
X290016Y999984D01*
X323339D01*
X340000Y983322D01*
Y966661D01*
X323339Y950000D01*
X306678D01*
X323339D01*
X340000Y933338D01*
Y916677D01*
X323339Y900016D01*
X290016D01*
X273355Y916677D01*
X373323Y983322D02*
X389984Y999984D01*
X423307D01*
X439968Y983322D01*
Y916677D01*
X423307Y900016D01*
X389984D01*
X373323Y916677D01*
Y983322D01*
X473291Y900016D02*
X506613D01*
X489952D01*
Y999984D01*
X473291Y983322D01*
X914226Y2379984D02*
Y2296677D01*
X930887Y2280016D01*
X964209D01*
X980871Y2296677D01*
Y2379984D01*
X1014193Y2363322D02*
X1030855Y2379984D01*
X1064177D01*
X1080838Y2363322D01*
Y2346661D01*
X1064177Y2330000D01*
X1047516D01*
X1064177D01*
X1080838Y2313339D01*
Y2296677D01*
X1064177Y2280016D01*
X1030855D01*
X1014193Y2296677D01*
X1114161Y2363322D02*
X1130822Y2379984D01*
X1164145D01*
X1180806Y2363322D01*
Y2296677D01*
X1164145Y2280016D01*
X1130822D01*
X1114161Y2296677D01*
Y2363322D01*
X1214129D02*
X1230790Y2379984D01*
X1264113D01*
X1280774Y2363322D01*
Y2296677D01*
X1264113Y2280016D01*
X1230790D01*
X1214129Y2296677D01*
Y2363322D01*
X123387Y1688735D02*
Y1605428D01*
X140048Y1588767D01*
X173371D01*
X190032Y1605428D01*
Y1688735D01*
X290000Y1588767D02*
X223355D01*
X290000Y1655412D01*
Y1672073D01*
X273339Y1688735D01*
X240016D01*
X223355Y1672073D01*
X323323D02*
X339984Y1688735D01*
X373307D01*
X389968Y1672073D01*
Y1605428D01*
X373307Y1588767D01*
X339984D01*
X323323Y1605428D01*
Y1672073D01*
X423290Y1588767D02*
X456613D01*
X439952D01*
Y1688735D01*
X423290Y1672073D01*
X2756730Y1599984D02*
Y1516677D01*
X2773392Y1500016D01*
X2806714D01*
X2823375Y1516677D01*
Y1599984D01*
X2923343Y1500016D02*
X2856698D01*
X2923343Y1566661D01*
Y1583322D01*
X2906682Y1599984D01*
X2873360D01*
X2856698Y1583322D01*
X2956666D02*
X2973327Y1599984D01*
X3006650D01*
X3023311Y1583322D01*
Y1516677D01*
X3006650Y1500016D01*
X2973327D01*
X2956666Y1516677D01*
Y1583322D01*
X3056634D02*
X3073295Y1599984D01*
X3106618D01*
X3123279Y1583322D01*
Y1516677D01*
X3106618Y1500016D01*
X3073295D01*
X3056634Y1516677D01*
Y1583322D01*
X-3318165Y1428765D02*
X-3401471D01*
X-3418133Y1412104D01*
Y1378782D01*
X-3401471Y1362120D01*
X-3318165D01*
X-3418133Y1328798D02*
Y1295475D01*
Y1312136D01*
X-3318165D01*
X-3334826Y1328798D01*
Y1245491D02*
X-3318165Y1228830D01*
Y1195507D01*
X-3334826Y1178846D01*
X-3401471D01*
X-3418133Y1195507D01*
Y1228830D01*
X-3401471Y1245491D01*
X-3334826D01*
X-3418133Y1145523D02*
Y1112201D01*
Y1128862D01*
X-3318165D01*
X-3334826Y1145523D01*
X-3964944Y1039984D02*
Y956678D01*
X-3948282Y940016D01*
X-3914960D01*
X-3898299Y956678D01*
Y1039984D01*
X-3864976Y940016D02*
X-3831653D01*
X-3848314D01*
Y1039984D01*
X-3864976Y1023323D01*
X-3781669D02*
X-3765008Y1039984D01*
X-3731685D01*
X-3715024Y1023323D01*
Y956678D01*
X-3731685Y940016D01*
X-3765008D01*
X-3781669Y956678D01*
Y1023323D01*
X-3681702D02*
X-3665040Y1039984D01*
X-3631718D01*
X-3615057Y1023323D01*
Y956678D01*
X-3631718Y940016D01*
X-3665040D01*
X-3681702Y956678D01*
Y1023323D01*
X-2412414Y2890825D02*
X-2429075Y2907486D01*
X-2462397D01*
X-2479059Y2890825D01*
Y2874163D01*
X-2462397Y2857502D01*
X-2429075D01*
X-2412414Y2840841D01*
Y2824180D01*
X-2429075Y2807518D01*
X-2462397D01*
X-2479059Y2824180D01*
X-2379091Y2907486D02*
Y2807518D01*
X-2345768Y2840841D01*
X-2312446Y2807518D01*
Y2907486D01*
X-2279123Y2807518D02*
X-2245801D01*
X-2262462D01*
Y2907486D01*
X-2279123Y2890825D01*
X-2195817D02*
X-2179155Y2907486D01*
X-2145833D01*
X-2129172Y2890825D01*
Y2824180D01*
X-2145833Y2807518D01*
X-2179155D01*
X-2195817Y2824180D01*
Y2890825D01*
X-2095849Y2807518D02*
X-2062526D01*
X-2079188D01*
Y2907486D01*
X-2095849Y2890825D01*
X-1408282Y2883322D02*
X-1424944Y2899984D01*
X-1458266D01*
X-1474927Y2883322D01*
Y2866661D01*
X-1458266Y2850000D01*
X-1424944D01*
X-1408282Y2833339D01*
Y2816677D01*
X-1424944Y2800016D01*
X-1458266D01*
X-1474927Y2816677D01*
X-1374960Y2899984D02*
Y2800016D01*
X-1341637Y2833339D01*
X-1308315Y2800016D01*
Y2899984D01*
X-1274992Y2800016D02*
X-1241669D01*
X-1258330D01*
Y2899984D01*
X-1274992Y2883322D01*
X-1191685D02*
X-1175024Y2899984D01*
X-1141702D01*
X-1125040Y2883322D01*
Y2816677D01*
X-1141702Y2800016D01*
X-1175024D01*
X-1191685Y2816677D01*
Y2883322D01*
X-1091718D02*
X-1075056Y2899984D01*
X-1041734D01*
X-1025073Y2883322D01*
Y2816677D01*
X-1041734Y2800016D01*
X-1075056D01*
X-1091718Y2816677D01*
Y2883322D01*
X-3219984Y-2073388D02*
X-3120016D01*
Y-2123371D01*
X-3136677Y-2140033D01*
X-3170000D01*
X-3186661Y-2123371D01*
Y-2073388D01*
Y-2106710D02*
X-3219984Y-2140033D01*
X-3120016Y-2240000D02*
X-3136677Y-2206678D01*
X-3170000Y-2173355D01*
X-3203322D01*
X-3219984Y-2190017D01*
Y-2223339D01*
X-3203322Y-2240000D01*
X-3186661D01*
X-3170000Y-2223339D01*
Y-2173355D01*
X-3136677Y-2273323D02*
X-3120016Y-2289984D01*
Y-2323307D01*
X-3136677Y-2339968D01*
X-3203322D01*
X-3219984Y-2323307D01*
Y-2289984D01*
X-3203322Y-2273323D01*
X-3136677D01*
X-3219984Y-2373291D02*
Y-2406613D01*
Y-2389952D01*
X-3120016D01*
X-3136677Y-2373291D01*
X-3219984Y-1546726D02*
X-3120016D01*
Y-1596710D01*
X-3136677Y-1613371D01*
X-3170000D01*
X-3186661Y-1596710D01*
Y-1546726D01*
Y-1580049D02*
X-3219984Y-1613371D01*
X-3120016Y-1713339D02*
X-3136677Y-1680016D01*
X-3170000Y-1646694D01*
X-3203322D01*
X-3219984Y-1663355D01*
Y-1696678D01*
X-3203322Y-1713339D01*
X-3186661D01*
X-3170000Y-1696678D01*
Y-1646694D01*
X-3136677Y-1746662D02*
X-3120016Y-1763323D01*
Y-1796646D01*
X-3136677Y-1813307D01*
X-3203322D01*
X-3219984Y-1796646D01*
Y-1763323D01*
X-3203322Y-1746662D01*
X-3136677D01*
Y-1846630D02*
X-3120016Y-1863291D01*
Y-1896613D01*
X-3136677Y-1913275D01*
X-3203322D01*
X-3219984Y-1896613D01*
Y-1863291D01*
X-3203322Y-1846630D01*
X-3136677D01*
X-8274Y-756612D02*
Y-656644D01*
X41710D01*
X58371Y-673305D01*
Y-706628D01*
X41710Y-723289D01*
X-8274D01*
X25048D02*
X58371Y-756612D01*
X158339Y-656644D02*
X91693D01*
Y-706628D01*
X125016Y-689967D01*
X141677D01*
X158339Y-706628D01*
Y-739951D01*
X141677Y-756612D01*
X108355D01*
X91693Y-739951D01*
X191661Y-673305D02*
X208323Y-656644D01*
X241645D01*
X258306Y-673305D01*
Y-739951D01*
X241645Y-756612D01*
X208323D01*
X191661Y-739951D01*
Y-673305D01*
X358274Y-756612D02*
X291629D01*
X358274Y-689967D01*
Y-673305D01*
X341613Y-656644D01*
X308290D01*
X291629Y-673305D01*
X-113509Y-1016613D02*
X-213476D01*
Y-966629D01*
X-196815Y-949968D01*
X-163492D01*
X-146831Y-966629D01*
Y-1016613D01*
Y-983291D02*
X-113509Y-949968D01*
X-213476Y-850000D02*
Y-916645D01*
X-163492D01*
X-180154Y-883323D01*
Y-866661D01*
X-163492Y-850000D01*
X-130170D01*
X-113509Y-866661D01*
Y-899984D01*
X-130170Y-916645D01*
X-196815Y-816678D02*
X-213476Y-800016D01*
Y-766694D01*
X-196815Y-750033D01*
X-130170D01*
X-113509Y-766694D01*
Y-800016D01*
X-130170Y-816678D01*
X-196815D01*
X-113509Y-716710D02*
Y-683387D01*
Y-700048D01*
X-213476D01*
X-196815Y-716710D01*
X-638093Y-636725D02*
X-538125D01*
Y-686709D01*
X-554786Y-703370D01*
X-588109D01*
X-604770Y-686709D01*
Y-636725D01*
Y-670047D02*
X-638093Y-703370D01*
X-538125Y-803338D02*
Y-736693D01*
X-588109D01*
X-571448Y-770015D01*
Y-786677D01*
X-588109Y-803338D01*
X-621431D01*
X-638093Y-786677D01*
Y-753354D01*
X-621431Y-736693D01*
X-554786Y-836661D02*
X-538125Y-853322D01*
Y-886644D01*
X-554786Y-903306D01*
X-621431D01*
X-638093Y-886644D01*
Y-853322D01*
X-621431Y-836661D01*
X-554786D01*
Y-936628D02*
X-538125Y-953290D01*
Y-986612D01*
X-554786Y-1003273D01*
X-621431D01*
X-638093Y-986612D01*
Y-953290D01*
X-621431Y-936628D01*
X-554786D01*
X945507Y-382522D02*
X1045475D01*
Y-432506D01*
X1028813Y-449167D01*
X995491D01*
X978829Y-432506D01*
Y-382522D01*
Y-415844D02*
X945507Y-449167D01*
Y-532474D02*
X1045475D01*
X995491Y-482490D01*
Y-549135D01*
X1028813Y-582458D02*
X1045475Y-599119D01*
Y-632441D01*
X1028813Y-649103D01*
X962168D01*
X945507Y-632441D01*
Y-599119D01*
X962168Y-582458D01*
X1028813D01*
X945507Y-682425D02*
Y-715748D01*
Y-699087D01*
X1045475D01*
X1028813Y-682425D01*
X420221Y-1039982D02*
Y-940015D01*
X470205D01*
X486866Y-956676D01*
Y-989999D01*
X470205Y-1006660D01*
X420221D01*
X453543D02*
X486866Y-1039982D01*
X570173D02*
Y-940015D01*
X520189Y-989999D01*
X586834D01*
X620156Y-956676D02*
X636818Y-940015D01*
X670140D01*
X686802Y-956676D01*
Y-1023321D01*
X670140Y-1039982D01*
X636818D01*
X620156Y-1023321D01*
Y-956676D01*
X720124D02*
X736786Y-940015D01*
X770108D01*
X786769Y-956676D01*
Y-1023321D01*
X770108Y-1039982D01*
X736786D01*
X720124Y-1023321D01*
Y-956676D01*
X-1183274Y230016D02*
Y329984D01*
X-1133290D01*
X-1116629Y313322D01*
Y280000D01*
X-1133290Y263339D01*
X-1183274D01*
X-1149952D02*
X-1116629Y230016D01*
X-1083306Y313322D02*
X-1066645Y329984D01*
X-1033323D01*
X-1016661Y313322D01*
Y296661D01*
X-1033323Y280000D01*
X-1049984D01*
X-1033323D01*
X-1016661Y263339D01*
Y246677D01*
X-1033323Y230016D01*
X-1066645D01*
X-1083306Y246677D01*
X-983339Y313322D02*
X-966677Y329984D01*
X-933355D01*
X-916694Y313322D01*
Y246677D01*
X-933355Y230016D01*
X-966677D01*
X-983339Y246677D01*
Y313322D01*
X-816726Y329984D02*
X-883371D01*
Y280000D01*
X-850048Y296661D01*
X-833387D01*
X-816726Y280000D01*
Y246677D01*
X-833387Y230016D01*
X-866709D01*
X-883371Y246677D01*
X-1039984Y166274D02*
X-940016D01*
Y116290D01*
X-956678Y99629D01*
X-990000D01*
X-1006662Y116290D01*
Y166274D01*
Y132951D02*
X-1039984Y99629D01*
X-956678Y66306D02*
X-940016Y49645D01*
Y16322D01*
X-956678Y-339D01*
X-973339D01*
X-990000Y16322D01*
Y32984D01*
Y16322D01*
X-1006662Y-339D01*
X-1023323D01*
X-1039984Y16322D01*
Y49645D01*
X-1023323Y66306D01*
X-956678Y-33662D02*
X-940016Y-50323D01*
Y-83646D01*
X-956678Y-100307D01*
X-1023323D01*
X-1039984Y-83646D01*
Y-50323D01*
X-1023323Y-33662D01*
X-956678D01*
X-1039984Y-183613D02*
X-940016D01*
X-990000Y-133629D01*
Y-200274D01*
X-1179984Y153274D02*
X-1080016D01*
Y103290D01*
X-1096677Y86629D01*
X-1130000D01*
X-1146661Y103290D01*
Y153274D01*
Y119951D02*
X-1179984Y86629D01*
X-1096677Y53306D02*
X-1080016Y36645D01*
Y3322D01*
X-1096677Y-13339D01*
X-1113339D01*
X-1130000Y3322D01*
Y19984D01*
Y3322D01*
X-1146661Y-13339D01*
X-1163322D01*
X-1179984Y3322D01*
Y36645D01*
X-1163322Y53306D01*
X-1096677Y-46662D02*
X-1080016Y-63323D01*
Y-96645D01*
X-1096677Y-113307D01*
X-1163322D01*
X-1179984Y-96645D01*
Y-63323D01*
X-1163322Y-46662D01*
X-1096677D01*
Y-146629D02*
X-1080016Y-163291D01*
Y-196613D01*
X-1096677Y-213274D01*
X-1113339D01*
X-1130000Y-196613D01*
Y-179952D01*
Y-196613D01*
X-1146661Y-213274D01*
X-1163322D01*
X-1179984Y-196613D01*
Y-163291D01*
X-1163322Y-146629D01*
X-1203274Y630016D02*
Y729984D01*
X-1153290D01*
X-1136629Y713322D01*
Y680000D01*
X-1153290Y663339D01*
X-1203274D01*
X-1169952D02*
X-1136629Y630016D01*
X-1103306Y713322D02*
X-1086645Y729984D01*
X-1053323D01*
X-1036661Y713322D01*
Y696661D01*
X-1053323Y680000D01*
X-1069984D01*
X-1053323D01*
X-1036661Y663339D01*
Y646677D01*
X-1053323Y630016D01*
X-1086645D01*
X-1103306Y646677D01*
X-1003339Y713322D02*
X-986677Y729984D01*
X-953355D01*
X-936694Y713322D01*
Y646677D01*
X-953355Y630016D01*
X-986677D01*
X-1003339Y646677D01*
Y713322D01*
X-836726Y630016D02*
X-903371D01*
X-836726Y696661D01*
Y713322D01*
X-853387Y729984D01*
X-886709D01*
X-903371Y713322D01*
X3100016Y-101704D02*
X3199984D01*
Y-151688D01*
X3183323Y-168349D01*
X3150000D01*
X3133339Y-151688D01*
Y-101704D01*
Y-135026D02*
X3100016Y-168349D01*
X3183323Y-201671D02*
X3199984Y-218333D01*
Y-251655D01*
X3183323Y-268316D01*
X3166661D01*
X3150000Y-251655D01*
Y-234994D01*
Y-251655D01*
X3133339Y-268316D01*
X3116678D01*
X3100016Y-251655D01*
Y-218333D01*
X3116678Y-201671D01*
X3183323Y-301639D02*
X3199984Y-318301D01*
Y-351623D01*
X3183323Y-368284D01*
X3116678D01*
X3100016Y-351623D01*
Y-318301D01*
X3116678Y-301639D01*
X3183323D01*
X3100016Y-401607D02*
Y-434930D01*
Y-418268D01*
X3199984D01*
X3183323Y-401607D01*
X2766726Y1360016D02*
Y1459984D01*
X2816710D01*
X2833371Y1443322D01*
Y1410000D01*
X2816710Y1393339D01*
X2766726D01*
X2800048D02*
X2833371Y1360016D01*
X2866694Y1443322D02*
X2883355Y1459984D01*
X2916677D01*
X2933339Y1443322D01*
Y1426661D01*
X2916677Y1410000D01*
X2900016D01*
X2916677D01*
X2933339Y1393339D01*
Y1376677D01*
X2916677Y1360016D01*
X2883355D01*
X2866694Y1376677D01*
X2966661Y1443322D02*
X2983323Y1459984D01*
X3016645D01*
X3033306Y1443322D01*
Y1376677D01*
X3016645Y1360016D01*
X2983323D01*
X2966661Y1376677D01*
Y1443322D01*
X3066629D02*
X3083291Y1459984D01*
X3116613D01*
X3133274Y1443322D01*
Y1376677D01*
X3116613Y1360016D01*
X3083291D01*
X3066629Y1376677D01*
Y1443322D01*
X-2008274Y2800016D02*
Y2899984D01*
X-1958290D01*
X-1941629Y2883322D01*
Y2850000D01*
X-1958290Y2833339D01*
X-2008274D01*
X-1974952D02*
X-1941629Y2800016D01*
X-1841661D02*
X-1908306D01*
X-1841661Y2866661D01*
Y2883322D01*
X-1858322Y2899984D01*
X-1891645D01*
X-1908306Y2883322D01*
X-1808339D02*
X-1791677Y2899984D01*
X-1758355D01*
X-1741693Y2883322D01*
Y2816677D01*
X-1758355Y2800016D01*
X-1791677D01*
X-1808339Y2816677D01*
Y2883322D01*
X-1658387Y2800016D02*
Y2899984D01*
X-1708371Y2850000D01*
X-1641726D01*
X-3963274Y1090016D02*
Y1189984D01*
X-3913290D01*
X-3896629Y1173323D01*
Y1140000D01*
X-3913290Y1123339D01*
X-3963274D01*
X-3929952D02*
X-3896629Y1090016D01*
X-3796661D02*
X-3863306D01*
X-3796661Y1156661D01*
Y1173323D01*
X-3813323Y1189984D01*
X-3846645D01*
X-3863306Y1173323D01*
X-3763339D02*
X-3746677Y1189984D01*
X-3713355D01*
X-3696694Y1173323D01*
Y1106677D01*
X-3713355Y1090016D01*
X-3746677D01*
X-3763339Y1106677D01*
Y1173323D01*
X-3663371D02*
X-3646709Y1189984D01*
X-3613387D01*
X-3596726Y1173323D01*
Y1156661D01*
X-3613387Y1140000D01*
X-3630048D01*
X-3613387D01*
X-3596726Y1123339D01*
Y1106677D01*
X-3613387Y1090016D01*
X-3646709D01*
X-3663371Y1106677D01*
X530016Y2483274D02*
X629984D01*
Y2433290D01*
X613323Y2416629D01*
X580000D01*
X563339Y2433290D01*
Y2483274D01*
Y2449951D02*
X530016Y2416629D01*
Y2316661D02*
Y2383306D01*
X596661Y2316661D01*
X613323D01*
X629984Y2333322D01*
Y2366645D01*
X613323Y2383306D01*
Y2283338D02*
X629984Y2266677D01*
Y2233354D01*
X613323Y2216693D01*
X546678D01*
X530016Y2233354D01*
Y2266677D01*
X546678Y2283338D01*
X613323D01*
X530016Y2116726D02*
Y2183371D01*
X596661Y2116726D01*
X613323D01*
X629984Y2133387D01*
Y2166709D01*
X613323Y2183371D01*
X2949984Y1733416D02*
X2850016D01*
Y1783400D01*
X2866677Y1800061D01*
X2900000D01*
X2916661Y1783400D01*
Y1733416D01*
Y1766739D02*
X2949984Y1800061D01*
Y1900029D02*
Y1833384D01*
X2883339Y1900029D01*
X2866677D01*
X2850016Y1883368D01*
Y1850045D01*
X2866677Y1833384D01*
Y1933352D02*
X2850016Y1950013D01*
Y1983336D01*
X2866677Y1999997D01*
X2933322D01*
X2949984Y1983336D01*
Y1950013D01*
X2933322Y1933352D01*
X2866677D01*
X2949984Y2033320D02*
Y2066642D01*
Y2049981D01*
X2850016D01*
X2866677Y2033320D01*
X3016018Y2077181D02*
X3115986D01*
Y2027197D01*
X3099325Y2010536D01*
X3066002D01*
X3049341Y2027197D01*
Y2077181D01*
Y2043858D02*
X3016018Y2010536D01*
Y1910568D02*
Y1977213D01*
X3082663Y1910568D01*
X3099325D01*
X3115986Y1927229D01*
Y1960552D01*
X3099325Y1977213D01*
Y1877245D02*
X3115986Y1860584D01*
Y1827262D01*
X3099325Y1810600D01*
X3032680D01*
X3016018Y1827262D01*
Y1860584D01*
X3032680Y1877245D01*
X3099325D01*
Y1777278D02*
X3115986Y1760616D01*
Y1727294D01*
X3099325Y1710633D01*
X3032680D01*
X3016018Y1727294D01*
Y1760616D01*
X3032680Y1777278D01*
X3099325D01*
X-1516930Y1025056D02*
X-1616898D01*
Y1075040D01*
X-1600237Y1091701D01*
X-1566914D01*
X-1550253Y1075040D01*
Y1025056D01*
Y1058379D02*
X-1516930Y1091701D01*
Y1125024D02*
Y1158347D01*
Y1141686D01*
X-1616898D01*
X-1600237Y1125024D01*
Y1208331D02*
X-1616898Y1224992D01*
Y1258314D01*
X-1600237Y1274976D01*
X-1533592D01*
X-1516930Y1258314D01*
Y1224992D01*
X-1533592Y1208331D01*
X-1600237D01*
X-1616898Y1374943D02*
Y1308298D01*
X-1566914D01*
X-1583575Y1341621D01*
Y1358282D01*
X-1566914Y1374943D01*
X-1533592D01*
X-1516930Y1358282D01*
Y1324960D01*
X-1533592Y1308298D01*
X-1830017Y985056D02*
X-1929984D01*
Y1035040D01*
X-1913323Y1051701D01*
X-1880001D01*
X-1863339Y1035040D01*
Y985056D01*
Y1018379D02*
X-1830017Y1051701D01*
Y1085024D02*
Y1118347D01*
Y1101686D01*
X-1929984D01*
X-1913323Y1085024D01*
Y1168331D02*
X-1929984Y1184992D01*
Y1218315D01*
X-1913323Y1234976D01*
X-1846678D01*
X-1830017Y1218315D01*
Y1184992D01*
X-1846678Y1168331D01*
X-1913323D01*
X-1830017Y1318282D02*
X-1929984D01*
X-1880001Y1268298D01*
Y1334943D01*
X-1664411Y985057D02*
X-1764379D01*
Y1035041D01*
X-1747718Y1051702D01*
X-1714395D01*
X-1697734Y1035041D01*
Y985057D01*
Y1018379D02*
X-1664411Y1051702D01*
Y1085024D02*
Y1118347D01*
Y1101686D01*
X-1764379D01*
X-1747718Y1085024D01*
Y1168331D02*
X-1764379Y1184992D01*
Y1218315D01*
X-1747718Y1234976D01*
X-1681073D01*
X-1664411Y1218315D01*
Y1184992D01*
X-1681073Y1168331D01*
X-1747718D01*
Y1268299D02*
X-1764379Y1284960D01*
Y1318283D01*
X-1747718Y1334944D01*
X-1731056D01*
X-1714395Y1318283D01*
Y1301621D01*
Y1318283D01*
X-1697734Y1334944D01*
X-1681073D01*
X-1664411Y1318283D01*
Y1284960D01*
X-1681073Y1268299D01*
X-1370017Y985056D02*
X-1469984D01*
Y1035040D01*
X-1453323Y1051701D01*
X-1420000D01*
X-1403339Y1035040D01*
Y985056D01*
Y1018379D02*
X-1370017Y1051701D01*
Y1085024D02*
Y1118347D01*
Y1101686D01*
X-1469984D01*
X-1453323Y1085024D01*
Y1168331D02*
X-1469984Y1184992D01*
Y1218315D01*
X-1453323Y1234976D01*
X-1386678D01*
X-1370017Y1218315D01*
Y1184992D01*
X-1386678Y1168331D01*
X-1453323D01*
X-1370017Y1334943D02*
Y1268298D01*
X-1436662Y1334943D01*
X-1453323D01*
X-1469984Y1318282D01*
Y1284960D01*
X-1453323Y1268298D01*
X-1928282Y2592517D02*
Y2692485D01*
X-1878298D01*
X-1861637Y2675824D01*
Y2642501D01*
X-1878298Y2625840D01*
X-1928282D01*
X-1894960D02*
X-1861637Y2592517D01*
X-1828314D02*
X-1794992D01*
X-1811653D01*
Y2692485D01*
X-1828314Y2675824D01*
X-1745008D02*
X-1728347Y2692485D01*
X-1695024D01*
X-1678363Y2675824D01*
Y2609179D01*
X-1695024Y2592517D01*
X-1728347D01*
X-1745008Y2609179D01*
Y2675824D01*
X-1645040Y2592517D02*
X-1611718D01*
X-1628379D01*
Y2692485D01*
X-1645040Y2675824D01*
X-1933545Y2450016D02*
Y2549984D01*
X-1883561D01*
X-1866900Y2533323D01*
Y2500000D01*
X-1883561Y2483339D01*
X-1933545D01*
X-1900222D02*
X-1866900Y2450016D01*
X-1833577D02*
X-1800254D01*
X-1816916D01*
Y2549984D01*
X-1833577Y2533323D01*
X-1750271D02*
X-1733609Y2549984D01*
X-1700287D01*
X-1683626Y2533323D01*
Y2466678D01*
X-1700287Y2450016D01*
X-1733609D01*
X-1750271Y2466678D01*
Y2533323D01*
X-1650303D02*
X-1633641Y2549984D01*
X-1600319D01*
X-1583658Y2533323D01*
Y2466678D01*
X-1600319Y2450016D01*
X-1633641D01*
X-1650303Y2466678D01*
Y2533323D01*
X-1987832Y2066637D02*
X-1921187D01*
X-1904526Y2083298D01*
Y2116621D01*
X-1921187Y2133282D01*
X-1987832D01*
X-2004494Y2116621D01*
Y2083298D01*
X-1971171Y2099960D02*
X-2004494Y2066637D01*
Y2083298D02*
X-1987832Y2066637D01*
X-2004494Y2033314D02*
Y1999992D01*
Y2016653D01*
X-1904526D01*
X-1921187Y2033314D01*
Y1950008D02*
X-1904526Y1933347D01*
Y1900024D01*
X-1921187Y1883363D01*
X-1987832D01*
X-2004494Y1900024D01*
Y1933347D01*
X-1987832Y1950008D01*
X-1921187D01*
X-2004494Y1850040D02*
Y1816718D01*
Y1833379D01*
X-1904526D01*
X-1921187Y1850040D01*
X-1352231Y2080218D02*
X-1285586D01*
X-1268925Y2096879D01*
Y2130201D01*
X-1285586Y2146863D01*
X-1352231D01*
X-1368892Y2130201D01*
Y2096879D01*
X-1335570Y2113540D02*
X-1368892Y2080218D01*
Y2096879D02*
X-1352231Y2080218D01*
X-1368892Y2046895D02*
Y2013573D01*
Y2030234D01*
X-1268925D01*
X-1285586Y2046895D01*
Y1963589D02*
X-1268925Y1946927D01*
Y1913605D01*
X-1285586Y1896944D01*
X-1352231D01*
X-1368892Y1913605D01*
Y1946927D01*
X-1352231Y1963589D01*
X-1285586D01*
Y1863621D02*
X-1268925Y1846959D01*
Y1813637D01*
X-1285586Y1796976D01*
X-1352231D01*
X-1368892Y1813637D01*
Y1846959D01*
X-1352231Y1863621D01*
X-1285586D01*
X-3810620Y-2167920D02*
Y-2067952D01*
X-3760636D01*
X-3743975Y-2084614D01*
Y-2117936D01*
X-3760636Y-2134597D01*
X-3810620D01*
X-3644007Y-2067952D02*
X-3677330Y-2084614D01*
X-3710652Y-2117936D01*
Y-2151259D01*
X-3693991Y-2167920D01*
X-3660668D01*
X-3644007Y-2151259D01*
Y-2134597D01*
X-3660668Y-2117936D01*
X-3710652D01*
X-3610684Y-2084614D02*
X-3594023Y-2067952D01*
X-3560701D01*
X-3544039Y-2084614D01*
Y-2151259D01*
X-3560701Y-2167920D01*
X-3594023D01*
X-3610684Y-2151259D01*
Y-2084614D01*
X-3510717D02*
X-3494055Y-2067952D01*
X-3460733D01*
X-3444072Y-2084614D01*
Y-2151259D01*
X-3460733Y-2167920D01*
X-3494055D01*
X-3510717Y-2151259D01*
Y-2084614D01*
X-1424984Y-1891742D02*
X-1325016D01*
X-1358339Y-1925065D01*
X-1325016Y-1958387D01*
X-1424984D01*
X-1325016Y-1991710D02*
X-1424984D01*
Y-2041694D01*
X-1408323Y-2058355D01*
X-1341678D01*
X-1325016Y-2041694D01*
Y-1991710D01*
Y-2158323D02*
X-1341678Y-2125000D01*
X-1375000Y-2091678D01*
X-1408323D01*
X-1424984Y-2108339D01*
Y-2141662D01*
X-1408323Y-2158323D01*
X-1391662D01*
X-1375000Y-2141662D01*
Y-2091678D01*
X-1341678Y-2191646D02*
X-1325016Y-2208307D01*
Y-2241630D01*
X-1341678Y-2258291D01*
X-1408323D01*
X-1424984Y-2241630D01*
Y-2208307D01*
X-1408323Y-2191646D01*
X-1341678D01*
Y-2291613D02*
X-1325016Y-2308275D01*
Y-2341597D01*
X-1341678Y-2358258D01*
X-1408323D01*
X-1424984Y-2341597D01*
Y-2308275D01*
X-1408323Y-2291613D01*
X-1341678D01*
X1266726Y2609984D02*
Y2510016D01*
X1333371D01*
X1433339D02*
X1366693D01*
X1433339Y2576661D01*
Y2593322D01*
X1416677Y2609984D01*
X1383355D01*
X1366693Y2593322D01*
X1466661D02*
X1483323Y2609984D01*
X1516645D01*
X1533306Y2593322D01*
Y2526677D01*
X1516645Y2510016D01*
X1483323D01*
X1466661Y2526677D01*
Y2593322D01*
X1566629D02*
X1583290Y2609984D01*
X1616613D01*
X1633274Y2593322D01*
Y2526677D01*
X1616613Y2510016D01*
X1583290D01*
X1566629Y2526677D01*
Y2593322D01*
X2554409Y-267129D02*
Y-300452D01*
Y-283790D01*
X2637716D01*
X2654377Y-300452D01*
Y-317113D01*
X2637716Y-333774D01*
X2571071Y-233806D02*
X2554409Y-217145D01*
Y-183823D01*
X2571071Y-167161D01*
X2587732D01*
X2604393Y-183823D01*
Y-200484D01*
Y-183823D01*
X2621055Y-167161D01*
X2637716D01*
X2654377Y-183823D01*
Y-217145D01*
X2637716Y-233806D01*
X2571071Y-133839D02*
X2554409Y-117177D01*
Y-83855D01*
X2571071Y-67194D01*
X2637716D01*
X2654377Y-83855D01*
Y-117177D01*
X2637716Y-133839D01*
X2571071D01*
Y-33871D02*
X2554409Y-17210D01*
Y16113D01*
X2571071Y32774D01*
X2637716D01*
X2654377Y16113D01*
Y-17210D01*
X2637716Y-33871D01*
X2571071D01*
X-3710217Y2409984D02*
X-3743540D01*
X-3726879D01*
Y2326678D01*
X-3743540Y2310016D01*
X-3760201D01*
X-3776862Y2326678D01*
X-3610250Y2310016D02*
X-3676895D01*
X-3610250Y2376661D01*
Y2393323D01*
X-3626911Y2409984D01*
X-3660233D01*
X-3676895Y2393323D01*
X-3576927D02*
X-3560265Y2409984D01*
X-3526943D01*
X-3510282Y2393323D01*
Y2326678D01*
X-3526943Y2310016D01*
X-3560265D01*
X-3576927Y2326678D01*
Y2393323D01*
X-3476959Y2310016D02*
X-3443636D01*
X-3460298D01*
Y2409984D01*
X-3476959Y2393323D01*
X3523371Y1697985D02*
X3490048D01*
X3506710D01*
Y1614679D01*
X3490048Y1598018D01*
X3473387D01*
X3456726Y1614679D01*
X3623339Y1598018D02*
X3556694D01*
X3623339Y1664663D01*
Y1681324D01*
X3606678Y1697985D01*
X3573355D01*
X3556694Y1681324D01*
X3656661D02*
X3673323Y1697985D01*
X3706645D01*
X3723306Y1681324D01*
Y1614679D01*
X3706645Y1598018D01*
X3673323D01*
X3656661Y1614679D01*
Y1681324D01*
X3756629D02*
X3773291Y1697985D01*
X3806613D01*
X3823274Y1681324D01*
Y1614679D01*
X3806613Y1598018D01*
X3773291D01*
X3756629Y1614679D01*
Y1681324D01*
X1009984Y-1846726D02*
X910016D01*
Y-1896710D01*
X926678Y-1913371D01*
X993323D01*
X1009984Y-1896710D01*
Y-1846726D01*
Y-2013339D02*
X993323Y-1980016D01*
X960000Y-1946694D01*
X926678D01*
X910016Y-1963355D01*
Y-1996677D01*
X926678Y-2013339D01*
X943339D01*
X960000Y-1996677D01*
Y-1946694D01*
X993323Y-2046661D02*
X1009984Y-2063323D01*
Y-2096645D01*
X993323Y-2113306D01*
X926678D01*
X910016Y-2096645D01*
Y-2063323D01*
X926678Y-2046661D01*
X993323D01*
Y-2146629D02*
X1009984Y-2163291D01*
Y-2196613D01*
X993323Y-2213274D01*
X926678D01*
X910016Y-2196613D01*
Y-2163291D01*
X926678Y-2146629D01*
X993323D01*
X2776726Y1289984D02*
Y1190016D01*
X2826710D01*
X2843371Y1206678D01*
Y1273323D01*
X2826710Y1289984D01*
X2776726D01*
X2943339Y1190016D02*
X2876694D01*
X2943339Y1256661D01*
Y1273323D01*
X2926677Y1289984D01*
X2893355D01*
X2876694Y1273323D01*
X2976661D02*
X2993323Y1289984D01*
X3026645D01*
X3043306Y1273323D01*
Y1206678D01*
X3026645Y1190016D01*
X2993323D01*
X2976661Y1206678D01*
Y1273323D01*
X3076629D02*
X3093290Y1289984D01*
X3126613D01*
X3143274Y1273323D01*
Y1256661D01*
X3126613Y1240000D01*
X3109952D01*
X3126613D01*
X3143274Y1223339D01*
Y1206678D01*
X3126613Y1190016D01*
X3093290D01*
X3076629Y1206678D01*
X-2841226Y2549984D02*
Y2450017D01*
X-2791242D01*
X-2774581Y2466678D01*
Y2533323D01*
X-2791242Y2549984D01*
X-2841226D01*
X-2674613Y2450017D02*
X-2741258D01*
X-2674613Y2516662D01*
Y2533323D01*
X-2691275Y2549984D01*
X-2724597D01*
X-2741258Y2533323D01*
X-2641291D02*
X-2624629Y2549984D01*
X-2591307D01*
X-2574646Y2533323D01*
Y2466678D01*
X-2591307Y2450017D01*
X-2624629D01*
X-2641291Y2466678D01*
Y2533323D01*
X-2474678Y2450017D02*
X-2541323D01*
X-2474678Y2516662D01*
Y2533323D01*
X-2491339Y2549984D01*
X-2524661D01*
X-2541323Y2533323D01*
X1838589Y2883274D02*
X1738621D01*
Y2833290D01*
X1755282Y2816629D01*
X1821927D01*
X1838589Y2833290D01*
Y2883274D01*
X1738621Y2716661D02*
Y2783306D01*
X1805266Y2716661D01*
X1821927D01*
X1838589Y2733322D01*
Y2766645D01*
X1821927Y2783306D01*
Y2683338D02*
X1838589Y2666677D01*
Y2633354D01*
X1821927Y2616693D01*
X1755282D01*
X1738621Y2633354D01*
Y2666677D01*
X1755282Y2683338D01*
X1821927D01*
Y2583370D02*
X1838589Y2566709D01*
Y2533387D01*
X1821927Y2516725D01*
X1755282D01*
X1738621Y2533387D01*
Y2566709D01*
X1755282Y2583370D01*
X1821927D01*
X-369984Y2363258D02*
X-270016D01*
Y2313274D01*
X-286677Y2296613D01*
X-320000D01*
X-336661Y2313274D01*
Y2363258D01*
X-270016Y2213306D02*
Y2246629D01*
X-286677Y2263290D01*
X-353322D01*
X-369984Y2246629D01*
Y2213306D01*
X-353322Y2196645D01*
X-286677D01*
X-270016Y2213306D01*
Y2163322D02*
X-369984D01*
X-336661Y2130000D01*
X-369984Y2096677D01*
X-270016D01*
Y1996709D02*
Y2063355D01*
X-369984D01*
Y1996709D01*
X-320000Y2063355D02*
Y2030032D01*
X-369984Y1963387D02*
X-270016D01*
Y1913403D01*
X-286677Y1896742D01*
X-320000D01*
X-336661Y1913403D01*
Y1963387D01*
Y1930064D02*
X-369984Y1896742D01*
X-793274Y2390016D02*
Y2489984D01*
X-759952Y2456661D01*
X-726629Y2489984D01*
Y2390016D01*
X-643323Y2489984D02*
X-676645D01*
X-693306Y2473322D01*
Y2406677D01*
X-676645Y2390016D01*
X-643323D01*
X-626661Y2406677D01*
Y2473322D01*
X-643323Y2489984D01*
X-593339D02*
Y2390016D01*
X-543355D01*
X-526694Y2406677D01*
Y2473322D01*
X-543355Y2489984D01*
X-593339D01*
X-426726D02*
X-493371D01*
Y2390016D01*
X-426726D01*
X-493371Y2440000D02*
X-460048D01*
X903371Y-2816677D02*
X886710Y-2800016D01*
X853387D01*
X836726Y-2816677D01*
Y-2883322D01*
X853387Y-2899984D01*
X886710D01*
X903371Y-2883322D01*
X1003339Y-2800016D02*
X970016Y-2816677D01*
X936694Y-2850000D01*
Y-2883322D01*
X953355Y-2899984D01*
X986677D01*
X1003339Y-2883322D01*
Y-2866661D01*
X986677Y-2850000D01*
X936694D01*
X1036661Y-2816677D02*
X1053323Y-2800016D01*
X1086645D01*
X1103306Y-2816677D01*
Y-2883322D01*
X1086645Y-2899984D01*
X1053323D01*
X1036661Y-2883322D01*
Y-2816677D01*
X1186613Y-2899984D02*
Y-2800016D01*
X1136629Y-2850000D01*
X1203274D01*
X-3356629Y-2806677D02*
X-3373290Y-2790016D01*
X-3406613D01*
X-3423274Y-2806677D01*
Y-2873322D01*
X-3406613Y-2889984D01*
X-3373290D01*
X-3356629Y-2873322D01*
X-3256662Y-2790016D02*
X-3289984Y-2806677D01*
X-3323307Y-2840000D01*
Y-2873322D01*
X-3306645Y-2889984D01*
X-3273323D01*
X-3256662Y-2873322D01*
Y-2856661D01*
X-3273323Y-2840000D01*
X-3323307D01*
X-3223339Y-2806677D02*
X-3206677Y-2790016D01*
X-3173355D01*
X-3156694Y-2806677D01*
Y-2873322D01*
X-3173355Y-2889984D01*
X-3206677D01*
X-3223339Y-2873322D01*
Y-2806677D01*
X-3123371D02*
X-3106710Y-2790016D01*
X-3073387D01*
X-3056726Y-2806677D01*
Y-2823339D01*
X-3073387Y-2840000D01*
X-3090048D01*
X-3073387D01*
X-3056726Y-2856661D01*
Y-2873322D01*
X-3073387Y-2889984D01*
X-3106710D01*
X-3123371Y-2873322D01*
X-1253589Y-673371D02*
X-1236928Y-656710D01*
Y-623388D01*
X-1253589Y-606726D01*
X-1320234D01*
X-1336896Y-623388D01*
Y-656710D01*
X-1320234Y-673371D01*
X-1236928Y-773339D02*
X-1253589Y-740017D01*
X-1286912Y-706694D01*
X-1320234D01*
X-1336896Y-723355D01*
Y-756678D01*
X-1320234Y-773339D01*
X-1303573D01*
X-1286912Y-756678D01*
Y-706694D01*
X-1253589Y-806662D02*
X-1236928Y-823323D01*
Y-856646D01*
X-1253589Y-873307D01*
X-1320234D01*
X-1336896Y-856646D01*
Y-823323D01*
X-1320234Y-806662D01*
X-1253589D01*
X-1336896Y-973275D02*
Y-906630D01*
X-1270251Y-973275D01*
X-1253589D01*
X-1236928Y-956614D01*
Y-923291D01*
X-1253589Y-906630D01*
X-1107042Y-690722D02*
X-1090381Y-674060D01*
Y-640738D01*
X-1107042Y-624076D01*
X-1173687D01*
X-1190349Y-640738D01*
Y-674060D01*
X-1173687Y-690722D01*
X-1090381Y-790689D02*
X-1107042Y-757367D01*
X-1140365Y-724044D01*
X-1173687D01*
X-1190349Y-740706D01*
Y-774028D01*
X-1173687Y-790689D01*
X-1157026D01*
X-1140365Y-774028D01*
Y-724044D01*
X-1107042Y-824012D02*
X-1090381Y-840673D01*
Y-873996D01*
X-1107042Y-890657D01*
X-1173687D01*
X-1190349Y-873996D01*
Y-840673D01*
X-1173687Y-824012D01*
X-1107042D01*
X-1190349Y-923980D02*
Y-957302D01*
Y-940641D01*
X-1090381D01*
X-1107042Y-923980D01*
X-961677Y-581870D02*
X-945016Y-565209D01*
Y-531887D01*
X-961677Y-515225D01*
X-1028322D01*
X-1044984Y-531887D01*
Y-565209D01*
X-1028322Y-581870D01*
X-945016Y-681838D02*
X-961677Y-648516D01*
X-995000Y-615193D01*
X-1028322D01*
X-1044984Y-631854D01*
Y-665177D01*
X-1028322Y-681838D01*
X-1011661D01*
X-995000Y-665177D01*
Y-615193D01*
X-961677Y-715161D02*
X-945016Y-731822D01*
Y-765145D01*
X-961677Y-781806D01*
X-1028322D01*
X-1044984Y-765145D01*
Y-731822D01*
X-1028322Y-715161D01*
X-961677D01*
Y-815129D02*
X-945016Y-831790D01*
Y-865113D01*
X-961677Y-881774D01*
X-1028322D01*
X-1044984Y-865113D01*
Y-831790D01*
X-1028322Y-815129D01*
X-961677D01*
X2015128Y-396678D02*
X1998466Y-380017D01*
X1965144D01*
X1948483Y-396678D01*
Y-463323D01*
X1965144Y-479984D01*
X1998466D01*
X2015128Y-463323D01*
X2098434Y-479984D02*
Y-380017D01*
X2048450Y-430000D01*
X2115095D01*
X2148418Y-396678D02*
X2165079Y-380017D01*
X2198402D01*
X2215063Y-396678D01*
Y-463323D01*
X2198402Y-479984D01*
X2165079D01*
X2148418Y-463323D01*
Y-396678D01*
X2298370Y-479984D02*
Y-380017D01*
X2248386Y-430000D01*
X2315031D01*
X2013371Y-196678D02*
X1996710Y-180016D01*
X1963387D01*
X1946726Y-196678D01*
Y-263323D01*
X1963387Y-279984D01*
X1996710D01*
X2013371Y-263323D01*
X2096678Y-279984D02*
Y-180016D01*
X2046694Y-230000D01*
X2113339D01*
X2146661Y-196678D02*
X2163323Y-180016D01*
X2196645D01*
X2213306Y-196678D01*
Y-263323D01*
X2196645Y-279984D01*
X2163323D01*
X2146661Y-263323D01*
Y-196678D01*
X2246629D02*
X2263291Y-180016D01*
X2296613D01*
X2313274Y-196678D01*
Y-213339D01*
X2296613Y-230000D01*
X2279952D01*
X2296613D01*
X2313274Y-246661D01*
Y-263323D01*
X2296613Y-279984D01*
X2263291D01*
X2246629Y-263323D01*
X2336677Y-1104129D02*
X2320016Y-1120790D01*
Y-1154112D01*
X2336677Y-1170774D01*
X2403322D01*
X2419984Y-1154112D01*
Y-1120790D01*
X2403322Y-1104129D01*
X2419984Y-1020822D02*
X2320016D01*
X2370000Y-1070806D01*
Y-1004161D01*
X2336677Y-970838D02*
X2320016Y-954177D01*
Y-920854D01*
X2336677Y-904193D01*
X2403322D01*
X2419984Y-920854D01*
Y-954177D01*
X2403322Y-970838D01*
X2336677D01*
X2419984Y-804225D02*
Y-870870D01*
X2353339Y-804225D01*
X2336677D01*
X2320016Y-820886D01*
Y-854209D01*
X2336677Y-870870D01*
X2491681Y-1087467D02*
X2475019Y-1104128D01*
Y-1137451D01*
X2491681Y-1154112D01*
X2558326D01*
X2574987Y-1137451D01*
Y-1104128D01*
X2558326Y-1087467D01*
X2574987Y-1004161D02*
X2475019D01*
X2525003Y-1054144D01*
Y-987499D01*
X2491681Y-954177D02*
X2475019Y-937515D01*
Y-904193D01*
X2491681Y-887532D01*
X2558326D01*
X2574987Y-904193D01*
Y-937515D01*
X2558326Y-954177D01*
X2491681D01*
X2574987Y-854209D02*
Y-820886D01*
Y-837547D01*
X2475019D01*
X2491681Y-854209D01*
X1230823Y-449384D02*
X1247484Y-432723D01*
Y-399401D01*
X1230823Y-382739D01*
X1164178D01*
X1147517Y-399401D01*
Y-432723D01*
X1164178Y-449384D01*
X1147517Y-532691D02*
X1247484D01*
X1197501Y-482707D01*
Y-549352D01*
X1230823Y-582675D02*
X1247484Y-599336D01*
Y-632659D01*
X1230823Y-649320D01*
X1164178D01*
X1147517Y-632659D01*
Y-599336D01*
X1164178Y-582675D01*
X1230823D01*
Y-682643D02*
X1247484Y-699304D01*
Y-732626D01*
X1230823Y-749288D01*
X1164178D01*
X1147517Y-732626D01*
Y-699304D01*
X1164178Y-682643D01*
X1230823D01*
X-401185Y-703370D02*
X-384524Y-686709D01*
Y-653386D01*
X-401185Y-636725D01*
X-467830D01*
X-484492Y-653386D01*
Y-686709D01*
X-467830Y-703370D01*
X-401185Y-736693D02*
X-384524Y-753354D01*
Y-786677D01*
X-401185Y-803338D01*
X-417847D01*
X-434508Y-786677D01*
Y-770015D01*
Y-786677D01*
X-451169Y-803338D01*
X-467830D01*
X-484492Y-786677D01*
Y-753354D01*
X-467830Y-736693D01*
X-401185Y-836661D02*
X-384524Y-853322D01*
Y-886644D01*
X-401185Y-903306D01*
X-467830D01*
X-484492Y-886644D01*
Y-853322D01*
X-467830Y-836661D01*
X-401185D01*
X-384524Y-1003273D02*
X-401185Y-969951D01*
X-434508Y-936628D01*
X-467830D01*
X-484492Y-953290D01*
Y-986612D01*
X-467830Y-1003273D01*
X-451169D01*
X-434508Y-986612D01*
Y-936628D01*
X-776678Y-713371D02*
X-760016Y-696710D01*
Y-663388D01*
X-776678Y-646726D01*
X-843323D01*
X-859984Y-663388D01*
Y-696710D01*
X-843323Y-713371D01*
X-776678Y-746694D02*
X-760016Y-763355D01*
Y-796678D01*
X-776678Y-813339D01*
X-793339D01*
X-810000Y-796678D01*
Y-780016D01*
Y-796678D01*
X-826662Y-813339D01*
X-843323D01*
X-859984Y-796678D01*
Y-763355D01*
X-843323Y-746694D01*
X-776678Y-846662D02*
X-760016Y-863323D01*
Y-896646D01*
X-776678Y-913307D01*
X-843323D01*
X-859984Y-896646D01*
Y-863323D01*
X-843323Y-846662D01*
X-776678D01*
X-760016Y-1013275D02*
Y-946630D01*
X-810000D01*
X-793339Y-979952D01*
Y-996613D01*
X-810000Y-1013275D01*
X-843323D01*
X-859984Y-996613D01*
Y-963291D01*
X-843323Y-946630D01*
X1433323Y246629D02*
X1449984Y263290D01*
Y296612D01*
X1433323Y313274D01*
X1366677D01*
X1350016Y296612D01*
Y263290D01*
X1366677Y246629D01*
X1433323Y213306D02*
X1449984Y196645D01*
Y163322D01*
X1433323Y146661D01*
X1416661D01*
X1400000Y163322D01*
Y179983D01*
Y163322D01*
X1383339Y146661D01*
X1366677D01*
X1350016Y163322D01*
Y196645D01*
X1366677Y213306D01*
X1433323Y113338D02*
X1449984Y96677D01*
Y63354D01*
X1433323Y46693D01*
X1366677D01*
X1350016Y63354D01*
Y96677D01*
X1366677Y113338D01*
X1433323D01*
X1350016Y-36614D02*
X1449984D01*
X1400000Y13370D01*
Y-53275D01*
X1441889Y642893D02*
X1458550Y659554D01*
Y692876D01*
X1441889Y709538D01*
X1375244D01*
X1358582Y692876D01*
Y659554D01*
X1375244Y642893D01*
X1441889Y609570D02*
X1458550Y592909D01*
Y559586D01*
X1441889Y542925D01*
X1425228D01*
X1408566Y559586D01*
Y576248D01*
Y559586D01*
X1391905Y542925D01*
X1375244D01*
X1358582Y559586D01*
Y592909D01*
X1375244Y609570D01*
X1441889Y509602D02*
X1458550Y492941D01*
Y459618D01*
X1441889Y442957D01*
X1375244D01*
X1358582Y459618D01*
Y492941D01*
X1375244Y509602D01*
X1441889D01*
Y409634D02*
X1458550Y392973D01*
Y359651D01*
X1441889Y342989D01*
X1425228D01*
X1408566Y359651D01*
Y376312D01*
Y359651D01*
X1391905Y342989D01*
X1375244D01*
X1358582Y359651D01*
Y392973D01*
X1375244Y409634D01*
X2233371Y299006D02*
X2216710Y315667D01*
X2183387D01*
X2166726Y299006D01*
Y232361D01*
X2183387Y215700D01*
X2216710D01*
X2233371Y232361D01*
X2266694Y299006D02*
X2283355Y315667D01*
X2316678D01*
X2333339Y299006D01*
Y282345D01*
X2316678Y265683D01*
X2300016D01*
X2316678D01*
X2333339Y249022D01*
Y232361D01*
X2316678Y215700D01*
X2283355D01*
X2266694Y232361D01*
X2366662Y299006D02*
X2383323Y315667D01*
X2416645D01*
X2433307Y299006D01*
Y232361D01*
X2416645Y215700D01*
X2383323D01*
X2366662Y232361D01*
Y299006D01*
X2533274Y215700D02*
X2466629D01*
X2533274Y282345D01*
Y299006D01*
X2516613Y315667D01*
X2483291D01*
X2466629Y299006D01*
X1708322Y324968D02*
X1724984Y341629D01*
Y374951D01*
X1708322Y391613D01*
X1641677D01*
X1625016Y374951D01*
Y341629D01*
X1641677Y324968D01*
X1708322Y291645D02*
X1724984Y274984D01*
Y241661D01*
X1708322Y225000D01*
X1691661D01*
X1675000Y241661D01*
Y258323D01*
Y241661D01*
X1658339Y225000D01*
X1641677D01*
X1625016Y241661D01*
Y274984D01*
X1641677Y291645D01*
X1708322Y191677D02*
X1724984Y175016D01*
Y141693D01*
X1708322Y125032D01*
X1641677D01*
X1625016Y141693D01*
Y175016D01*
X1641677Y191677D01*
X1708322D01*
X1625016Y91709D02*
Y58387D01*
Y75048D01*
X1724984D01*
X1708322Y91709D01*
X1793371Y513323D02*
X1776710Y529984D01*
X1743387D01*
X1726726Y513323D01*
Y446678D01*
X1743387Y430016D01*
X1776710D01*
X1793371Y446678D01*
X1826694Y513323D02*
X1843355Y529984D01*
X1876677D01*
X1893339Y513323D01*
Y496661D01*
X1876677Y480000D01*
X1860016D01*
X1876677D01*
X1893339Y463339D01*
Y446678D01*
X1876677Y430016D01*
X1843355D01*
X1826694Y446678D01*
X1926661Y513323D02*
X1943323Y529984D01*
X1976645D01*
X1993306Y513323D01*
Y446678D01*
X1976645Y430016D01*
X1943323D01*
X1926661Y446678D01*
Y513323D01*
X2026629D02*
X2043291Y529984D01*
X2076613D01*
X2093274Y513323D01*
Y446678D01*
X2076613Y430016D01*
X2043291D01*
X2026629Y446678D01*
Y513323D01*
X153371Y1443322D02*
X136710Y1459984D01*
X103387D01*
X86726Y1443322D01*
Y1376677D01*
X103387Y1360016D01*
X136710D01*
X153371Y1376677D01*
X253339Y1360016D02*
X186694D01*
X253339Y1426661D01*
Y1443322D01*
X236677Y1459984D01*
X203355D01*
X186694Y1443322D01*
X286661D02*
X303323Y1459984D01*
X336645D01*
X353306Y1443322D01*
Y1376677D01*
X336645Y1360016D01*
X303323D01*
X286661Y1376677D01*
Y1443322D01*
X386629Y1459984D02*
X453274D01*
Y1443322D01*
X386629Y1376677D01*
Y1360016D01*
X746171Y2416629D02*
X762832Y2433290D01*
Y2466613D01*
X746171Y2483274D01*
X679526D01*
X662865Y2466613D01*
Y2433290D01*
X679526Y2416629D01*
X662865Y2316661D02*
Y2383306D01*
X729510Y2316661D01*
X746171D01*
X762832Y2333322D01*
Y2366645D01*
X746171Y2383306D01*
Y2283338D02*
X762832Y2266677D01*
Y2233354D01*
X746171Y2216693D01*
X679526D01*
X662865Y2233354D01*
Y2266677D01*
X679526Y2283338D01*
X746171D01*
X762832Y2116726D02*
X746171Y2150048D01*
X712848Y2183371D01*
X679526D01*
X662865Y2166709D01*
Y2133387D01*
X679526Y2116726D01*
X696187D01*
X712848Y2133387D01*
Y2183371D01*
X1853322Y1651830D02*
X1869984Y1668491D01*
Y1701813D01*
X1853322Y1718475D01*
X1786677D01*
X1770016Y1701813D01*
Y1668491D01*
X1786677Y1651830D01*
X1770016Y1551862D02*
Y1618507D01*
X1836661Y1551862D01*
X1853322D01*
X1869984Y1568523D01*
Y1601846D01*
X1853322Y1618507D01*
Y1518539D02*
X1869984Y1501878D01*
Y1468555D01*
X1853322Y1451894D01*
X1786677D01*
X1770016Y1468555D01*
Y1501878D01*
X1786677Y1518539D01*
X1853322D01*
X1869984Y1351926D02*
Y1418571D01*
X1820000D01*
X1836661Y1385249D01*
Y1368588D01*
X1820000Y1351926D01*
X1786677D01*
X1770016Y1368588D01*
Y1401910D01*
X1786677Y1418571D01*
X1592830Y1507224D02*
X1609491Y1523885D01*
Y1557208D01*
X1592830Y1573869D01*
X1526185D01*
X1509524Y1557208D01*
Y1523885D01*
X1526185Y1507224D01*
X1509524Y1407257D02*
Y1473902D01*
X1576169Y1407257D01*
X1592830D01*
X1609491Y1423918D01*
Y1457240D01*
X1592830Y1473902D01*
Y1373934D02*
X1609491Y1357272D01*
Y1323950D01*
X1592830Y1307289D01*
X1526185D01*
X1509524Y1323950D01*
Y1357272D01*
X1526185Y1373934D01*
X1592830D01*
X1509524Y1223982D02*
X1609491D01*
X1559507Y1273966D01*
Y1207321D01*
X1391103Y1486629D02*
X1407765Y1503290D01*
Y1536613D01*
X1391103Y1553274D01*
X1324458D01*
X1307797Y1536613D01*
Y1503290D01*
X1324458Y1486629D01*
X1307797Y1386661D02*
Y1453306D01*
X1374442Y1386661D01*
X1391103D01*
X1407765Y1403322D01*
Y1436645D01*
X1391103Y1453306D01*
Y1353338D02*
X1407765Y1336677D01*
Y1303355D01*
X1391103Y1286693D01*
X1324458D01*
X1307797Y1303355D01*
Y1336677D01*
X1324458Y1353338D01*
X1391103D01*
Y1253371D02*
X1407765Y1236709D01*
Y1203387D01*
X1391103Y1186726D01*
X1374442D01*
X1357781Y1203387D01*
Y1220048D01*
Y1203387D01*
X1341119Y1186726D01*
X1324458D01*
X1307797Y1203387D01*
Y1236709D01*
X1324458Y1253371D01*
X1174961Y1526629D02*
X1191623Y1543290D01*
Y1576612D01*
X1174961Y1593274D01*
X1108316D01*
X1091655Y1576612D01*
Y1543290D01*
X1108316Y1526629D01*
X1091655Y1426661D02*
Y1493306D01*
X1158300Y1426661D01*
X1174961D01*
X1191623Y1443322D01*
Y1476644D01*
X1174961Y1493306D01*
Y1393338D02*
X1191623Y1376677D01*
Y1343354D01*
X1174961Y1326693D01*
X1108316D01*
X1091655Y1343354D01*
Y1376677D01*
X1108316Y1393338D01*
X1174961D01*
X1091655Y1226725D02*
Y1293370D01*
X1158300Y1226725D01*
X1174961D01*
X1191623Y1243386D01*
Y1276709D01*
X1174961Y1293370D01*
X2350032Y2853322D02*
X2333371Y2869984D01*
X2300048D01*
X2283387Y2853322D01*
Y2786677D01*
X2300048Y2770016D01*
X2333371D01*
X2350032Y2786677D01*
X2450000Y2770016D02*
X2383355D01*
X2450000Y2836661D01*
Y2853322D01*
X2433339Y2869984D01*
X2400016D01*
X2383355Y2853322D01*
X2483323D02*
X2499984Y2869984D01*
X2533307D01*
X2549968Y2853322D01*
Y2786677D01*
X2533307Y2770016D01*
X2499984D01*
X2483323Y2786677D01*
Y2853322D01*
X2583290Y2770016D02*
X2616613D01*
X2599952D01*
Y2869984D01*
X2583290Y2853322D01*
X2407671Y1428325D02*
X2391010Y1444986D01*
X2357687D01*
X2341026Y1428325D01*
Y1361680D01*
X2357687Y1345018D01*
X2391010D01*
X2407671Y1361680D01*
X2507639Y1345018D02*
X2440994D01*
X2507639Y1411663D01*
Y1428325D01*
X2490977Y1444986D01*
X2457655D01*
X2440994Y1428325D01*
X2540961D02*
X2557623Y1444986D01*
X2590945D01*
X2607606Y1428325D01*
Y1361680D01*
X2590945Y1345018D01*
X2557623D01*
X2540961Y1361680D01*
Y1428325D01*
X2640929D02*
X2657591Y1444986D01*
X2690913D01*
X2707574Y1428325D01*
Y1361680D01*
X2690913Y1345018D01*
X2657591D01*
X2640929Y1361680D01*
Y1428325D01*
X-2051675Y1689477D02*
X-2035013Y1706138D01*
Y1739460D01*
X-2051675Y1756122D01*
X-2118320D01*
X-2134981Y1739460D01*
Y1706138D01*
X-2118320Y1689477D01*
X-2134981Y1656154D02*
Y1622831D01*
Y1639493D01*
X-2035013D01*
X-2051675Y1656154D01*
Y1572848D02*
X-2035013Y1556186D01*
Y1522864D01*
X-2051675Y1506202D01*
X-2118320D01*
X-2134981Y1522864D01*
Y1556186D01*
X-2118320Y1572848D01*
X-2051675D01*
X-2134981Y1422896D02*
X-2035013D01*
X-2084997Y1472880D01*
Y1406235D01*
X-2213354Y1703020D02*
X-2196693Y1719681D01*
Y1753003D01*
X-2213354Y1769665D01*
X-2279999D01*
X-2296661Y1753003D01*
Y1719681D01*
X-2279999Y1703020D01*
X-2296661Y1669697D02*
Y1636374D01*
Y1653036D01*
X-2196693D01*
X-2213354Y1669697D01*
Y1586391D02*
X-2196693Y1569729D01*
Y1536407D01*
X-2213354Y1519745D01*
X-2279999D01*
X-2296661Y1536407D01*
Y1569729D01*
X-2279999Y1586391D01*
X-2213354D01*
Y1486423D02*
X-2196693Y1469761D01*
Y1436439D01*
X-2213354Y1419778D01*
X-2230016D01*
X-2246677Y1436439D01*
Y1453100D01*
Y1436439D01*
X-2263338Y1419778D01*
X-2279999D01*
X-2296661Y1436439D01*
Y1469761D01*
X-2279999Y1486423D01*
X-2546676Y1678905D02*
X-2530014Y1695566D01*
Y1728889D01*
X-2546676Y1745550D01*
X-2613321D01*
X-2629982Y1728889D01*
Y1695566D01*
X-2613321Y1678905D01*
X-2629982Y1645582D02*
Y1612260D01*
Y1628921D01*
X-2530014D01*
X-2546676Y1645582D01*
Y1562276D02*
X-2530014Y1545614D01*
Y1512292D01*
X-2546676Y1495631D01*
X-2613321D01*
X-2629982Y1512292D01*
Y1545614D01*
X-2613321Y1562276D01*
X-2546676D01*
X-2629982Y1395663D02*
Y1462308D01*
X-2563337Y1395663D01*
X-2546676D01*
X-2530014Y1412324D01*
Y1445647D01*
X-2546676Y1462308D01*
X-3424593Y-1370175D02*
X-3407932Y-1353514D01*
Y-1320191D01*
X-3424593Y-1303530D01*
X-3491238D01*
X-3507900Y-1320191D01*
Y-1353514D01*
X-3491238Y-1370175D01*
X-3507900Y-1403498D02*
Y-1436820D01*
Y-1420159D01*
X-3407932D01*
X-3424593Y-1403498D01*
Y-1486804D02*
X-3407932Y-1503466D01*
Y-1536788D01*
X-3424593Y-1553449D01*
X-3491238D01*
X-3507900Y-1536788D01*
Y-1503466D01*
X-3491238Y-1486804D01*
X-3424593D01*
X-3507900Y-1586772D02*
Y-1620095D01*
Y-1603433D01*
X-3407932D01*
X-3424593Y-1586772D01*
X-3591678Y-1341702D02*
X-3575016Y-1325041D01*
Y-1291718D01*
X-3591678Y-1275057D01*
X-3658323D01*
X-3674984Y-1291718D01*
Y-1325041D01*
X-3658323Y-1341702D01*
X-3674984Y-1375024D02*
Y-1408347D01*
Y-1391686D01*
X-3575016D01*
X-3591678Y-1375024D01*
Y-1458331D02*
X-3575016Y-1474992D01*
Y-1508315D01*
X-3591678Y-1524976D01*
X-3658323D01*
X-3674984Y-1508315D01*
Y-1474992D01*
X-3658323Y-1458331D01*
X-3591678D01*
Y-1558299D02*
X-3575016Y-1574960D01*
Y-1608283D01*
X-3591678Y-1624944D01*
X-3658323D01*
X-3674984Y-1608283D01*
Y-1574960D01*
X-3658323Y-1558299D01*
X-3591678D01*
X2691742Y-1246857D02*
Y-1346825D01*
X2741726D01*
X2758387Y-1330163D01*
Y-1313502D01*
X2741726Y-1296841D01*
X2691742D01*
X2741726D01*
X2758387Y-1280180D01*
Y-1263518D01*
X2741726Y-1246857D01*
X2691742D01*
X2791710D02*
X2858355D01*
X2825032D01*
Y-1346825D01*
X2958323Y-1246857D02*
X2925000Y-1263518D01*
X2891677Y-1296841D01*
Y-1330163D01*
X2908339Y-1346825D01*
X2941661D01*
X2958323Y-1330163D01*
Y-1313502D01*
X2941661Y-1296841D01*
X2891677D01*
X2991645Y-1263518D02*
X3008307Y-1246857D01*
X3041629D01*
X3058290Y-1263518D01*
Y-1330163D01*
X3041629Y-1346825D01*
X3008307D01*
X2991645Y-1330163D01*
Y-1263518D01*
X3091613D02*
X3108274Y-1246857D01*
X3141597D01*
X3158258Y-1263518D01*
Y-1330163D01*
X3141597Y-1346825D01*
X3108274D01*
X3091613Y-1330163D01*
Y-1263518D01*
D81*
X-1156645Y-2819984D02*
Y-2720016D01*
X-1106661D01*
X-1090000Y-2736678D01*
Y-2770000D01*
X-1106661Y-2786661D01*
X-1156645D01*
X-1056677Y-2819984D02*
X-1023355D01*
X-1040016D01*
Y-2720016D01*
X-1056677Y-2736678D01*
%TF.MD5,eb91c750f73fdbefa1887abc2d7995e7*%
M02*
