%TF.GenerationSoftware,Altium Limited,Altium Designer,25.4.2 (15)*%
G04 Layer_Color=16711935*
%FSLAX45Y45*%
%MOMM*%
%TF.SameCoordinates,1AD04230-50D1-441F-A6C9-0C8C8D58179F*%
%TF.FilePolarity,Negative*%
%TF.FileFunction,Soldermask,Bot*%
%TF.Part,Single*%
G01*
G75*
%TA.AperFunction,ComponentPad*%
%ADD60C,1.00000*%
%ADD61C,1.25000*%
%ADD62R,1.57000X1.57000*%
%ADD63C,1.57000*%
%ADD64R,1.10000X1.10000*%
%ADD65C,1.10000*%
%TA.AperFunction,TestPad*%
%ADD110O,2.00000X1.20000*%
%ADD111C,0.75000*%
%ADD112O,2.30000X1.20000*%
%TA.AperFunction,ComponentPad*%
%ADD113C,2.70000*%
%ADD114R,2.70000X2.70000*%
%TA.AperFunction,ViaPad*%
%ADD115C,4.20000*%
%ADD116C,0.80000*%
D60*
X2625000Y-2225000D02*
D03*
D61*
X1879998D02*
D03*
D62*
X2870001Y197000D02*
D03*
D63*
Y-57000D02*
D03*
D64*
X950000Y865500D02*
D03*
D65*
Y377500D02*
D03*
X272000Y-2527002D02*
D03*
X-527998D02*
D03*
D110*
X-3747999Y1827998D02*
D03*
Y2691999D02*
D03*
D111*
X-3379999Y1971000D02*
D03*
Y2549002D02*
D03*
D112*
X-3330001Y2691999D02*
D03*
Y1827998D02*
D03*
D113*
X3499998Y1399998D02*
D03*
Y999999D02*
D03*
Y599999D02*
D03*
Y200000D02*
D03*
Y-199999D02*
D03*
Y-599998D02*
D03*
Y-999997D02*
D03*
Y-1400002D02*
D03*
X3800002Y1399998D02*
D03*
Y999999D02*
D03*
Y599999D02*
D03*
Y200000D02*
D03*
Y-199999D02*
D03*
Y-599998D02*
D03*
Y-999997D02*
D03*
D114*
Y-1400002D02*
D03*
D115*
X3650000Y-2600000D02*
D03*
Y2600000D02*
D03*
D116*
X-3121893Y1370606D02*
D03*
X-2976760Y1515740D02*
D03*
%TF.MD5,2ba6e5bdfe1a56b0ae89bd040a9bbae2*%
M02*
