%TF.GenerationSoftware,Altium Limited,Altium Designer,25.4.2 (15)*%
G04 Layer_Physical_Order=2*
G04 Layer_Color=36540*
%FSLAX45Y45*%
%MOMM*%
%TF.SameCoordinates,1AD04230-50D1-441F-A6C9-0C8C8D58179F*%
%TF.FilePolarity,Positive*%
%TF.FileFunction,Copper,L2,Inr,Signal*%
%TF.Part,Single*%
G01*
G75*
%TA.AperFunction,Conductor*%
%ADD53C,0.25400*%
%TA.AperFunction,ComponentPad*%
%ADD60C,1.00000*%
%ADD61C,1.25000*%
%ADD62R,1.57000X1.57000*%
%ADD63C,1.57000*%
%ADD64R,1.10000X1.10000*%
%ADD65C,1.10000*%
%ADD66C,0.90000*%
%TA.AperFunction,TestPad*%
%ADD67O,1.80000X1.00000*%
%ADD68C,0.65000*%
%ADD69O,2.10000X1.00000*%
%TA.AperFunction,ComponentPad*%
%ADD70C,2.50000*%
%TA.AperFunction,ViaPad*%
%ADD72C,4.00000*%
%ADD73C,0.60000*%
G36*
X3872591Y2964706D02*
X3900272Y2948140D01*
X3919503Y2922242D01*
X3927357Y2890954D01*
X3924996Y2874999D01*
X3924996Y2874998D01*
X3924997Y2874998D01*
X3924997Y1506733D01*
X3911139Y1500993D01*
X3862134Y1549998D01*
X3737870D01*
X3660606Y1472733D01*
X3650000Y1462132D01*
X3639394Y1472733D01*
X3562130Y1549998D01*
X3437866D01*
X3349998Y1462130D01*
Y1337866D01*
X3437866Y1249998D01*
X3562130D01*
X3639394Y1327262D01*
X3650000Y1337863D01*
X3660606Y1327262D01*
X3737870Y1249998D01*
X3862134D01*
X3911139Y1299003D01*
X3924997Y1293263D01*
Y1106734D01*
X3911139Y1100993D01*
X3862134Y1149998D01*
X3737870D01*
X3660606Y1072734D01*
X3650000Y1062133D01*
X3639394Y1072734D01*
X3562130Y1149998D01*
X3437866D01*
X3349998Y1062130D01*
Y937867D01*
X3437866Y849999D01*
X3562130D01*
X3639394Y927263D01*
X3650000Y937864D01*
X3660606Y927263D01*
X3737870Y849999D01*
X3862134D01*
X3911139Y899004D01*
X3924997Y893264D01*
Y706734D01*
X3911139Y700994D01*
X3862134Y749999D01*
X3737870D01*
X3660606Y672735D01*
X3650000Y662134D01*
X3639394Y672735D01*
X3562130Y749999D01*
X3437866D01*
X3349998Y662131D01*
Y537867D01*
X3437866Y449999D01*
X3562130D01*
X3639394Y527264D01*
X3650000Y537865D01*
X3660606Y527264D01*
X3737870Y449999D01*
X3862134D01*
X3911139Y499005D01*
X3924998Y493264D01*
Y327948D01*
X3911139Y322208D01*
X3868347Y365000D01*
X3820002D01*
Y200000D01*
Y35000D01*
X3868347D01*
X3911140Y77793D01*
X3924998Y72052D01*
Y-72051D01*
X3911140Y-77792D01*
X3868347Y-34999D01*
X3820002D01*
Y-199999D01*
Y-364999D01*
X3868347D01*
X3911140Y-322207D01*
X3924998Y-327947D01*
X3924998Y-493264D01*
X3911140Y-499004D01*
X3862134Y-449998D01*
X3737870D01*
X3660606Y-527263D01*
X3650000Y-537864D01*
X3639394Y-527263D01*
X3562130Y-449998D01*
X3437866D01*
X3349998Y-537866D01*
Y-662130D01*
X3437866Y-749998D01*
X3562130D01*
X3639394Y-672734D01*
X3650000Y-662133D01*
X3660606Y-672734D01*
X3737870Y-749998D01*
X3862134D01*
X3911140Y-700993D01*
X3924998Y-706733D01*
Y-893263D01*
X3911140Y-899003D01*
X3862134Y-849998D01*
X3737870D01*
X3660606Y-927262D01*
X3650000Y-937863D01*
X3639394Y-927262D01*
X3562130Y-849998D01*
X3437866D01*
X3349998Y-937866D01*
Y-1062129D01*
X3437866Y-1149997D01*
X3562130D01*
X3639394Y-1072733D01*
X3650000Y-1062132D01*
X3660606Y-1072733D01*
X3737870Y-1149997D01*
X3862134D01*
X3911140Y-1100992D01*
X3924998Y-1106732D01*
Y-1293267D01*
X3911140Y-1299008D01*
X3862134Y-1250002D01*
X3737870D01*
X3660606Y-1327266D01*
X3650000Y-1337867D01*
X3639394Y-1327266D01*
X3562130Y-1250002D01*
X3437866D01*
X3349998Y-1337870D01*
Y-1462134D01*
X3437866Y-1550002D01*
X3562130D01*
X3639394Y-1472737D01*
X3650000Y-1462136D01*
X3660606Y-1472737D01*
X3737870Y-1550002D01*
X3862134D01*
X3911140Y-1500996D01*
X3924998Y-1506736D01*
X3924998Y-2800001D01*
X3925000Y-2814920D01*
X3913581Y-2842487D01*
X3892483Y-2863585D01*
X3864916Y-2875002D01*
X3849997Y-2875001D01*
X-3774865D01*
X-3820808Y-2855971D01*
X-3855971Y-2820807D01*
X-3875001Y-2774865D01*
Y-2750001D01*
Y1802859D01*
X-3860001Y1805842D01*
X-3845401Y1770596D01*
X-3787999Y1746819D01*
X-3707999D01*
X-3650597Y1770596D01*
X-3626820Y1827998D01*
X-3650597Y1885400D01*
X-3707999Y1909177D01*
X-3787999D01*
X-3845401Y1885400D01*
X-3860001Y1850153D01*
X-3875001Y1853137D01*
Y2666860D01*
X-3860001Y2669844D01*
X-3845401Y2634597D01*
X-3787999Y2610820D01*
X-3707999D01*
X-3650597Y2634597D01*
X-3626820Y2691999D01*
X-3650597Y2749401D01*
X-3707999Y2773178D01*
X-3787999D01*
X-3845401Y2749401D01*
X-3860001Y2714155D01*
X-3875001Y2717138D01*
Y2849999D01*
X-3877555Y2867537D01*
X-3868850Y2901897D01*
X-3847660Y2930311D01*
X-3817209Y2948453D01*
X-3799672Y2951007D01*
X-3799671Y2951009D01*
X3856635Y2967060D01*
X3872591Y2964706D01*
D02*
G37*
%LPC*%
G36*
X-2522398Y2799999D02*
X-2563819D01*
X-2593108Y2770710D01*
Y2729288D01*
X-2563819Y2699999D01*
X-2522398D01*
X-2493109Y2729288D01*
Y2770710D01*
X-2522398Y2799999D01*
D02*
G37*
G36*
X3697739Y2840000D02*
X3670000D01*
Y2620000D01*
X3890000D01*
Y2647739D01*
X3853462Y2735949D01*
X3785949Y2803462D01*
X3697739Y2840000D01*
D02*
G37*
G36*
X3630000D02*
X3602261D01*
X3514051Y2803462D01*
X3446538Y2735949D01*
X3410000Y2647739D01*
Y2620000D01*
X3630000D01*
Y2840000D01*
D02*
G37*
G36*
X-3275001Y2773178D02*
X-3385001D01*
X-3442404Y2749401D01*
X-3466181Y2691999D01*
X-3442404Y2634597D01*
X-3385001Y2610820D01*
X-3275001D01*
X-3217599Y2634597D01*
X-3193822Y2691999D01*
X-3217599Y2749401D01*
X-3275001Y2773178D01*
D02*
G37*
G36*
X-2211933Y2692501D02*
X-2253354D01*
X-2282644Y2663212D01*
Y2621791D01*
X-2253354Y2592501D01*
X-2211933D01*
X-2182644Y2621791D01*
Y2663212D01*
X-2211933Y2692501D01*
D02*
G37*
G36*
X-2069289Y2610000D02*
X-2110711D01*
X-2140000Y2580711D01*
Y2580309D01*
X-2153858Y2574568D01*
X-2159289Y2580000D01*
X-2200711D01*
X-2230000Y2550711D01*
Y2509289D01*
X-2200711Y2480000D01*
X-2159289D01*
X-2130000Y2509289D01*
Y2509691D01*
X-2116142Y2515432D01*
X-2110711Y2510000D01*
X-2069289D01*
X-2040000Y2539289D01*
Y2580711D01*
X-2069289Y2610000D01*
D02*
G37*
G36*
X-3416486Y2589003D02*
X-3417547Y2588562D01*
X-3417552Y2588561D01*
X-3418367Y2587745D01*
X-3418368Y2587744D01*
X-3418809Y2586678D01*
X-3418810Y2586678D01*
X-3418810Y2586101D01*
X-3418810Y2586101D01*
X-3418810Y2575039D01*
X-3418810Y2575037D01*
X-3418810Y2574964D01*
Y2532083D01*
X-3414424Y2521496D01*
X-3406321Y2513392D01*
X-3395733Y2509007D01*
X-3360394D01*
X-3351254Y2512793D01*
X-3344258Y2519788D01*
X-3340472Y2528929D01*
Y2575347D01*
X-3343028Y2581517D01*
X-3347750Y2586239D01*
X-3353919Y2588795D01*
X-3404686Y2588795D01*
X-3415887Y2588795D01*
X-3415908Y2589002D01*
X-3415908D01*
X-3416486Y2589003D01*
D02*
G37*
G36*
X-3102210Y2472702D02*
X-3143632D01*
X-3172921Y2443412D01*
Y2401991D01*
X-3143632Y2372702D01*
X-3102210D01*
X-3072921Y2401991D01*
Y2443412D01*
X-3102210Y2472702D01*
D02*
G37*
G36*
X3890000Y2580000D02*
X3670000D01*
Y2360000D01*
X3697739D01*
X3785949Y2396538D01*
X3853462Y2464051D01*
X3890000Y2552261D01*
Y2580000D01*
D02*
G37*
G36*
X3630000D02*
X3410000D01*
Y2552261D01*
X3446538Y2464051D01*
X3514051Y2396538D01*
X3602261Y2360000D01*
X3630000D01*
Y2580000D01*
D02*
G37*
G36*
X-1959289Y2405000D02*
X-2000711D01*
X-2030000Y2375711D01*
Y2334290D01*
X-2000711Y2305000D01*
X-1959289D01*
X-1930000Y2334290D01*
Y2375711D01*
X-1959289Y2405000D01*
D02*
G37*
G36*
X-879289Y2391314D02*
X-920711D01*
X-950000Y2362024D01*
Y2320603D01*
X-920711Y2291314D01*
X-879289D01*
X-850000Y2320603D01*
Y2362024D01*
X-879289Y2391314D01*
D02*
G37*
G36*
X-2390530Y2368655D02*
X-2431951D01*
X-2461241Y2339365D01*
Y2297944D01*
X-2431951Y2268655D01*
X-2390530D01*
X-2361241Y2297944D01*
Y2339365D01*
X-2390530Y2368655D01*
D02*
G37*
G36*
X-2552458Y2309999D02*
X-2593879D01*
X-2623168Y2280710D01*
Y2239289D01*
X-2593879Y2210000D01*
X-2552458D01*
X-2523168Y2239289D01*
Y2280710D01*
X-2552458Y2309999D01*
D02*
G37*
G36*
X-419289Y2250000D02*
X-460711D01*
X-490000Y2220711D01*
Y2179289D01*
X-460711Y2150000D01*
X-419289D01*
X-390000Y2179289D01*
Y2220711D01*
X-419289Y2250000D01*
D02*
G37*
G36*
X1118210Y2151799D02*
X1076789D01*
X1053405Y2128415D01*
X1031820Y2150000D01*
X990398D01*
X961109Y2120711D01*
Y2079289D01*
X978938Y2061460D01*
X981447Y2047500D01*
X976567Y2042619D01*
X952158Y2018210D01*
Y1976789D01*
X981447Y1947500D01*
X1022869D01*
X1051079Y1975710D01*
X1076789Y1950000D01*
X1118210D01*
X1147500Y1979289D01*
Y2020710D01*
X1127545Y2040665D01*
X1118965Y2050899D01*
X1127545Y2061133D01*
X1147500Y2081088D01*
Y2122510D01*
X1118210Y2151799D01*
D02*
G37*
G36*
X-3371610Y2205532D02*
X-3413032D01*
X-3442321Y2176243D01*
Y2134821D01*
X-3413032Y2105532D01*
X-3371610D01*
X-3342321Y2134821D01*
Y2176243D01*
X-3371610Y2205532D01*
D02*
G37*
G36*
X-3068642Y2214998D02*
X-3110063D01*
X-3139352Y2185709D01*
Y2144288D01*
X-3134167Y2139102D01*
X-3139907Y2125244D01*
X-3147716D01*
X-3177006Y2095955D01*
Y2054534D01*
X-3147716Y2025245D01*
X-3106295D01*
X-3077006Y2054534D01*
Y2095955D01*
X-3082191Y2101141D01*
X-3076451Y2114999D01*
X-3068642D01*
X-3039353Y2144288D01*
Y2185709D01*
X-3068642Y2214998D01*
D02*
G37*
G36*
X-1439289Y2090000D02*
X-1480711D01*
X-1510000Y2060711D01*
Y2019289D01*
X-1480711Y1990000D01*
X-1439289D01*
X-1410000Y2019289D01*
Y2060711D01*
X-1439289Y2090000D01*
D02*
G37*
G36*
X878209Y2088148D02*
X836788D01*
X807499Y2058859D01*
Y2017438D01*
X836788Y1988149D01*
X878209D01*
X907498Y2017438D01*
Y2058859D01*
X878209Y2088148D01*
D02*
G37*
G36*
X-3350171Y2021772D02*
X-3351623Y2021772D01*
X-3424406Y2021771D01*
X-3424406Y2021770D01*
X-3426973Y2021722D01*
X-3426974Y2021720D01*
X-3431678Y2019666D01*
X-3435238Y2015966D01*
X-3437110Y2011187D01*
X-3437112Y2011186D01*
X-3437104Y2010809D01*
X-3437062Y2008619D01*
Y1953955D01*
X-3437062Y1949402D01*
X-3433578Y1940989D01*
X-3427139Y1934550D01*
X-3418726Y1931066D01*
X-3414174Y1931066D01*
X-3346644D01*
X-3343595Y1932329D01*
X-3341262Y1934662D01*
X-3339999Y1937711D01*
X-3339999Y2010147D01*
X-3339998Y2010985D01*
X-3339999Y2010986D01*
X-3339998Y2011599D01*
X-3339999Y2011600D01*
X-3339998Y2013623D01*
X-3340000Y2013624D01*
X-3341548Y2017361D01*
X-3344409Y2020223D01*
X-3348147Y2021771D01*
X-3348148Y2021772D01*
X-3350171Y2021772D01*
X-3350171Y2021772D01*
D02*
G37*
G36*
X1118210Y1924059D02*
X1076789D01*
X1054304Y1901575D01*
X1031820Y1924059D01*
X990398D01*
X961109Y1894770D01*
Y1853349D01*
X990398Y1824060D01*
X1031820D01*
X1054304Y1846544D01*
X1076789Y1824060D01*
X1118210D01*
X1147500Y1853349D01*
Y1894770D01*
X1118210Y1924059D01*
D02*
G37*
G36*
X-856152Y1976920D02*
X-897573D01*
X-926863Y1947630D01*
Y1906209D01*
X-897573Y1876920D01*
X-856152D01*
X-826863Y1906209D01*
Y1947630D01*
X-856152Y1976920D01*
D02*
G37*
G36*
X-1609289Y1875000D02*
X-1650711D01*
X-1680000Y1845711D01*
Y1804289D01*
X-1650711Y1775000D01*
X-1609289D01*
X-1580000Y1804289D01*
Y1845711D01*
X-1609289Y1875000D01*
D02*
G37*
G36*
X-2067789D02*
X-2109210D01*
X-2138500Y1845711D01*
Y1804289D01*
X-2109210Y1775000D01*
X-2067789D01*
X-2038500Y1804289D01*
Y1845711D01*
X-2067789Y1875000D01*
D02*
G37*
G36*
X-2563995Y1872511D02*
X-2605416D01*
X-2634705Y1843222D01*
Y1801801D01*
X-2605416Y1772512D01*
X-2563995D01*
X-2534706Y1801801D01*
Y1843222D01*
X-2563995Y1872511D01*
D02*
G37*
G36*
X-2254289Y1872499D02*
X-2295710D01*
X-2324999Y1843210D01*
Y1801789D01*
X-2295710Y1772499D01*
X-2254289D01*
X-2225000Y1801789D01*
Y1843210D01*
X-2254289Y1872499D01*
D02*
G37*
G36*
X-1804289Y1850000D02*
X-1845711D01*
X-1875000Y1820711D01*
Y1779289D01*
X-1845711Y1750000D01*
X-1804289D01*
X-1775000Y1779289D01*
Y1820711D01*
X-1804289Y1850000D01*
D02*
G37*
G36*
X-3275001Y1909177D02*
X-3385001D01*
X-3442404Y1885400D01*
X-3466181Y1827998D01*
X-3442404Y1770596D01*
X-3385001Y1746819D01*
X-3275001D01*
X-3217599Y1770596D01*
X-3193822Y1827998D01*
X-3217599Y1885400D01*
X-3275001Y1909177D01*
D02*
G37*
G36*
X-3077593Y1886949D02*
X-3119014D01*
X-3148303Y1857659D01*
Y1816238D01*
X-3121266Y1789200D01*
X-3148303Y1762163D01*
Y1720742D01*
X-3119014Y1691452D01*
X-3077593D01*
X-3048303Y1720742D01*
Y1762163D01*
X-3075341Y1789200D01*
X-3048303Y1816238D01*
Y1857659D01*
X-3077593Y1886949D01*
D02*
G37*
G36*
X1042851Y1576673D02*
X1001430D01*
X972141Y1547384D01*
Y1505962D01*
X1001430Y1476673D01*
X1042851D01*
X1072140Y1505962D01*
Y1547384D01*
X1042851Y1576673D01*
D02*
G37*
G36*
Y1436022D02*
X1001430D01*
X974164Y1408755D01*
X966071Y1407599D01*
X957979Y1408755D01*
X930712Y1436022D01*
X889291D01*
X860002Y1406732D01*
Y1365311D01*
X889291Y1336022D01*
X930712D01*
X957979Y1363288D01*
X966071Y1364444D01*
X974164Y1363288D01*
X1001430Y1336022D01*
X1042851D01*
X1072140Y1365311D01*
Y1406732D01*
X1042851Y1436022D01*
D02*
G37*
G36*
X-1113657Y1323663D02*
X-1155078D01*
X-1184368Y1294373D01*
Y1252952D01*
X-1155078Y1223663D01*
X-1113657D01*
X-1084368Y1252952D01*
Y1294373D01*
X-1113657Y1323663D01*
D02*
G37*
G36*
X2330710Y1309999D02*
X2289288D01*
X2259999Y1280710D01*
Y1239288D01*
X2289288Y1209999D01*
X2330710D01*
X2359999Y1239288D01*
Y1280710D01*
X2330710Y1309999D01*
D02*
G37*
G36*
X-2669289Y1190000D02*
X-2710711D01*
X-2740000Y1160711D01*
Y1119289D01*
X-2710711Y1090000D01*
X-2669289D01*
X-2640000Y1119289D01*
Y1160711D01*
X-2669289Y1190000D01*
D02*
G37*
G36*
X-3161862Y1106568D02*
X-3203283D01*
X-3232573Y1077278D01*
Y1035857D01*
X-3203283Y1006568D01*
X-3161862D01*
X-3132573Y1035857D01*
Y1077278D01*
X-3161862Y1106568D01*
D02*
G37*
G36*
X-3309289Y1090000D02*
X-3350711D01*
X-3380000Y1060711D01*
Y1019289D01*
X-3350711Y990000D01*
X-3309289D01*
X-3280000Y1019289D01*
Y1060711D01*
X-3309289Y1090000D01*
D02*
G37*
G36*
X1030000Y945500D02*
X870000D01*
Y785500D01*
X1030000D01*
Y945500D01*
D02*
G37*
G36*
X1445607Y933049D02*
X1404186D01*
X1374897Y903760D01*
Y862339D01*
X1399753Y837482D01*
X1377675Y815405D01*
Y773983D01*
X1406964Y744694D01*
X1448385D01*
X1477675Y773983D01*
Y815405D01*
X1452819Y840261D01*
X1474896Y862339D01*
Y903760D01*
X1445607Y933049D01*
D02*
G37*
G36*
X-872575Y549998D02*
X-913997D01*
X-943286Y520709D01*
Y479288D01*
X-913997Y449999D01*
X-872575D01*
X-843286Y479288D01*
Y520709D01*
X-872575Y549998D01*
D02*
G37*
G36*
X2557011Y450895D02*
X2515590D01*
X2486301Y421606D01*
Y380185D01*
X2515590Y350896D01*
X2557011D01*
X2586300Y380185D01*
Y421606D01*
X2557011Y450895D01*
D02*
G37*
G36*
X983137Y457500D02*
X916863D01*
X870000Y410637D01*
Y344363D01*
X916863Y297500D01*
X983137D01*
X1030000Y344363D01*
Y410637D01*
X983137Y457500D01*
D02*
G37*
G36*
X3780002Y365000D02*
X3731657D01*
X3639394Y272736D01*
X3562130Y350000D01*
X3437866D01*
X3349998Y262132D01*
Y137868D01*
X3437866Y50000D01*
X3562130D01*
X3639394Y127264D01*
X3731657Y35000D01*
X3780002D01*
Y200000D01*
Y365000D01*
D02*
G37*
G36*
X2973501Y300500D02*
X2766501D01*
Y93500D01*
X2973501D01*
Y300500D01*
D02*
G37*
G36*
X-80289Y177999D02*
X-121710D01*
X-150999Y148710D01*
Y107289D01*
X-121710Y77999D01*
X-80289D01*
X-50999Y107289D01*
Y148710D01*
X-80289Y177999D01*
D02*
G37*
G36*
X-853079Y165626D02*
X-894500D01*
X-923790Y136337D01*
Y94915D01*
X-894500Y65626D01*
X-853079D01*
X-823790Y94915D01*
Y136337D01*
X-853079Y165626D01*
D02*
G37*
G36*
X-1269789Y113500D02*
X-1311210D01*
X-1340499Y84211D01*
Y42790D01*
X-1311210Y13501D01*
X-1269789D01*
X-1240500Y42790D01*
Y84211D01*
X-1269789Y113500D01*
D02*
G37*
G36*
X-79289Y50000D02*
X-120711D01*
X-150000Y20711D01*
Y-20711D01*
X-120711Y-50000D01*
X-79289D01*
X-50000Y-20711D01*
Y20711D01*
X-79289Y50000D01*
D02*
G37*
G36*
X-849669Y46284D02*
X-891091D01*
X-920380Y16995D01*
Y-24426D01*
X-891091Y-53716D01*
X-849669D01*
X-820380Y-24426D01*
Y16995D01*
X-849669Y46284D01*
D02*
G37*
G36*
X3780002Y-34999D02*
X3731657D01*
X3639394Y-127263D01*
X3562130Y-49999D01*
X3437866D01*
X3349998Y-137867D01*
Y-262131D01*
X3437866Y-349999D01*
X3562130D01*
X3639394Y-272735D01*
X3731657Y-364999D01*
X3780002D01*
Y-199999D01*
Y-34999D01*
D02*
G37*
G36*
X2912872Y46500D02*
X2827130D01*
X2766501Y-14129D01*
Y-99872D01*
X2827130Y-160500D01*
X2912872D01*
X2973501Y-99872D01*
Y-14129D01*
X2912872Y46500D01*
D02*
G37*
G36*
X-835488Y-93904D02*
X-876909D01*
X-906199Y-123193D01*
Y-164614D01*
X-876909Y-193903D01*
X-835488D01*
X-806199Y-164614D01*
Y-123193D01*
X-835488Y-93904D01*
D02*
G37*
G36*
X1795011Y-200000D02*
X1753589D01*
X1724300Y-229289D01*
Y-270711D01*
X1753589Y-300000D01*
X1795011D01*
X1824300Y-270711D01*
Y-229289D01*
X1795011Y-200000D01*
D02*
G37*
G36*
X-969289Y-238201D02*
X-1010711D01*
X-1040000Y-267491D01*
Y-308912D01*
X-1010711Y-338201D01*
X-969289D01*
X-940000Y-308912D01*
Y-267491D01*
X-969289Y-238201D01*
D02*
G37*
G36*
X-1269789Y-267500D02*
X-1311210D01*
X-1340499Y-296789D01*
Y-338210D01*
X-1311210Y-367499D01*
X-1269789D01*
X-1240500Y-338210D01*
Y-296789D01*
X-1269789Y-267500D01*
D02*
G37*
G36*
X1948210Y-634999D02*
X1906788D01*
X1877499Y-664288D01*
Y-705710D01*
X1906788Y-734999D01*
X1948210D01*
X1977499Y-705710D01*
Y-664288D01*
X1948210Y-634999D01*
D02*
G37*
G36*
X990711Y-790000D02*
X949289D01*
X920000Y-819289D01*
Y-860711D01*
X949289Y-890000D01*
X990711D01*
X1020000Y-860711D01*
Y-819289D01*
X990711Y-790000D01*
D02*
G37*
G36*
X2105220Y-865000D02*
X2063799D01*
X2034510Y-894289D01*
Y-935711D01*
X2063799Y-965000D01*
X2105220D01*
X2134510Y-935711D01*
Y-894289D01*
X2105220Y-865000D01*
D02*
G37*
G36*
X-1813789Y-896906D02*
X-1855210D01*
X-1884500Y-926195D01*
Y-967617D01*
X-1855210Y-996906D01*
X-1813789D01*
X-1784500Y-967617D01*
Y-926195D01*
X-1813789Y-896906D01*
D02*
G37*
G36*
X-804289Y-900000D02*
X-845711D01*
X-875000Y-929289D01*
Y-970711D01*
X-845711Y-1000000D01*
X-804289D01*
X-775000Y-970711D01*
Y-929289D01*
X-804289Y-900000D01*
D02*
G37*
G36*
X-1940789Y-961500D02*
X-1982210D01*
X-2011500Y-990789D01*
Y-1032210D01*
X-1982210Y-1061500D01*
X-1940789D01*
X-1911500Y-1032210D01*
Y-990789D01*
X-1940789Y-961500D01*
D02*
G37*
G36*
X-2067789Y-963500D02*
X-2109210D01*
X-2138500Y-992789D01*
Y-1034210D01*
X-2109210Y-1063500D01*
X-2067789D01*
X-2038500Y-1034210D01*
Y-992789D01*
X-2067789Y-963500D01*
D02*
G37*
G36*
X-2446787Y-973445D02*
X-2488209D01*
X-2517498Y-1002735D01*
Y-1044156D01*
X-2488209Y-1073445D01*
X-2446787D01*
X-2417498Y-1044156D01*
Y-1002735D01*
X-2446787Y-973445D01*
D02*
G37*
G36*
X-2956789Y-979291D02*
X-2998210D01*
X-3027500Y-1008581D01*
Y-1050002D01*
X-2998210Y-1079291D01*
X-2956789D01*
X-2927500Y-1050002D01*
Y-1008581D01*
X-2956789Y-979291D01*
D02*
G37*
G36*
X-2829789Y-984305D02*
X-2871210D01*
X-2900500Y-1013594D01*
Y-1055016D01*
X-2871210Y-1084305D01*
X-2829789D01*
X-2800500Y-1055016D01*
Y-1013594D01*
X-2829789Y-984305D01*
D02*
G37*
G36*
X-2700394Y-985503D02*
X-2741815D01*
X-2771104Y-1014792D01*
Y-1056213D01*
X-2741815Y-1085503D01*
X-2700394D01*
X-2671104Y-1056213D01*
Y-1014792D01*
X-2700394Y-985503D01*
D02*
G37*
G36*
X100711Y-1020000D02*
X59289D01*
X30000Y-1049289D01*
Y-1090711D01*
X59289Y-1120000D01*
X100711D01*
X130000Y-1090711D01*
Y-1049289D01*
X100711Y-1020000D01*
D02*
G37*
G36*
X-3411349Y-976653D02*
X-3452770D01*
X-3482059Y-1005942D01*
Y-1047363D01*
X-3453710Y-1075712D01*
X-3479829Y-1101831D01*
Y-1143253D01*
X-3450540Y-1172542D01*
X-3409119D01*
X-3379829Y-1143253D01*
Y-1101831D01*
X-3408178Y-1073482D01*
X-3382060Y-1047363D01*
Y-1005942D01*
X-3411349Y-976653D01*
D02*
G37*
G36*
X-439288Y-1085000D02*
X-480709D01*
X-509998Y-1114289D01*
Y-1155710D01*
X-480709Y-1185000D01*
X-439288D01*
X-409998Y-1155710D01*
Y-1114289D01*
X-439288Y-1085000D01*
D02*
G37*
G36*
X-667287D02*
X-708709D01*
X-737998Y-1114289D01*
Y-1155710D01*
X-708709Y-1185000D01*
X-667287D01*
X-637998Y-1155710D01*
Y-1114289D01*
X-667287Y-1085000D01*
D02*
G37*
G36*
X-117291Y-1235002D02*
X-158712D01*
X-187051Y-1263340D01*
X-189861Y-1264415D01*
X-203002Y-1265289D01*
X-229289Y-1239002D01*
X-270711D01*
X-300000Y-1268291D01*
Y-1309712D01*
X-270711Y-1339001D01*
X-229289D01*
X-200951Y-1310663D01*
X-198140Y-1309588D01*
X-185000Y-1308714D01*
X-158712Y-1335001D01*
X-117291D01*
X-90767Y-1308477D01*
X-62729Y-1336515D01*
X-21308D01*
X7981Y-1307226D01*
Y-1265805D01*
X-21308Y-1236516D01*
X-62729D01*
X-89253Y-1263040D01*
X-117291Y-1235002D01*
D02*
G37*
G36*
X-558447Y-1180850D02*
X-599868D01*
X-629158Y-1210139D01*
Y-1251560D01*
X-599868Y-1280849D01*
X-558447D01*
X-529158Y-1251560D01*
Y-1210139D01*
X-558447Y-1180850D01*
D02*
G37*
G36*
X1987596Y-1224336D02*
X1966395Y-1233117D01*
X1957614Y-1254318D01*
X1966395Y-1275519D01*
X1969715Y-1278838D01*
X1990916Y-1287620D01*
X2012116Y-1278838D01*
X2020898Y-1257638D01*
X2012116Y-1236437D01*
X2008797Y-1233117D01*
X1987596Y-1224336D01*
D02*
G37*
G36*
X910711Y-1220000D02*
X869289D01*
X840000Y-1249289D01*
Y-1290711D01*
X869289Y-1320000D01*
X910711D01*
X940000Y-1290711D01*
Y-1249289D01*
X910711Y-1220000D01*
D02*
G37*
G36*
X1202364Y-1223761D02*
X1160943D01*
X1131654Y-1253051D01*
Y-1294472D01*
X1160943Y-1323761D01*
X1202364D01*
X1231653Y-1294472D01*
Y-1253051D01*
X1202364Y-1223761D01*
D02*
G37*
G36*
X228383Y-1245924D02*
X186962D01*
X157673Y-1275214D01*
Y-1316635D01*
X186962Y-1345924D01*
X228383D01*
X257673Y-1316635D01*
Y-1275214D01*
X228383Y-1245924D01*
D02*
G37*
G36*
X-967123Y-1449944D02*
X-1008545D01*
X-1037834Y-1479233D01*
Y-1520654D01*
X-1008545Y-1549943D01*
X-967123D01*
X-937834Y-1520654D01*
Y-1479233D01*
X-967123Y-1449944D01*
D02*
G37*
G36*
X-1100008Y-1452715D02*
X-1141430D01*
X-1170719Y-1482004D01*
Y-1523425D01*
X-1141430Y-1552715D01*
X-1100008D01*
X-1070719Y-1523425D01*
Y-1482004D01*
X-1100008Y-1452715D01*
D02*
G37*
G36*
X-3004289Y-1635008D02*
X-3045710D01*
X-3075000Y-1664297D01*
Y-1705718D01*
X-3047189Y-1733528D01*
X-3046374Y-1741462D01*
X-3047189Y-1749395D01*
X-3075000Y-1777205D01*
Y-1818626D01*
X-3045710Y-1847916D01*
X-3004289D01*
X-2975000Y-1818626D01*
Y-1777205D01*
X-3002810Y-1749395D01*
X-3003625Y-1741462D01*
X-3002810Y-1733528D01*
X-2975000Y-1705718D01*
Y-1664297D01*
X-3004289Y-1635008D01*
D02*
G37*
G36*
X257167Y-1900931D02*
X-643304D01*
X-654785Y-1905687D01*
X-659540Y-1917167D01*
Y-2117304D01*
X-654785Y-2128785D01*
X-643304Y-2133540D01*
X257167D01*
X268648Y-2128785D01*
X273403Y-2117304D01*
Y-1917167D01*
X268648Y-1905687D01*
X257167Y-1900931D01*
D02*
G37*
G36*
X2656184Y-2109384D02*
X2648705D01*
X1795927Y-2109385D01*
X1789579Y-2110150D01*
X1778434Y-2116422D01*
X1770540Y-2126483D01*
X1767096Y-2138798D01*
X1767862Y-2145146D01*
X1767863Y-2145147D01*
Y-2273772D01*
X1770550Y-2287285D01*
X1775823Y-2300015D01*
X1783478Y-2311472D01*
X1793221Y-2321214D01*
X1804677Y-2328869D01*
X1817407Y-2334142D01*
X1830921Y-2336830D01*
X2674612D01*
X2697566Y-2327322D01*
X2715134Y-2309754D01*
X2724641Y-2286800D01*
X2724641Y-2274378D01*
X2724643Y-2274377D01*
Y-2177843D01*
X2721725Y-2163172D01*
X2716000Y-2149352D01*
X2707690Y-2136915D01*
X2697113Y-2126338D01*
X2684675Y-2118027D01*
X2670855Y-2112303D01*
X2656184Y-2109384D01*
D02*
G37*
G36*
X312049Y-2410119D02*
X312048Y-2410119D01*
X-561533Y-2410119D01*
X-571877Y-2410119D01*
X-590990Y-2418036D01*
X-605618Y-2432664D01*
X-613535Y-2451778D01*
X-613534Y-2462122D01*
Y-2568461D01*
X-613534Y-2575026D01*
X-610973Y-2587904D01*
X-605949Y-2600035D01*
X-598654Y-2610953D01*
X-589370Y-2620238D01*
X-578452Y-2627533D01*
X-566321Y-2632558D01*
X-553443Y-2635119D01*
X-546878Y-2635119D01*
X-546878Y-2635119D01*
X296878D01*
X309725Y-2635119D01*
X333464Y-2625287D01*
X351633Y-2607118D01*
X361466Y-2583379D01*
X361466Y-2570532D01*
X361466Y-2570531D01*
X361466Y-2459537D01*
X361466Y-2449707D01*
X353943Y-2431544D01*
X340042Y-2417642D01*
X325826Y-2411754D01*
X321878Y-2410119D01*
X312050Y-2410119D01*
X312049D01*
X312049Y-2410119D01*
D02*
G37*
G36*
X3697739Y-2360000D02*
X3670000D01*
Y-2580000D01*
X3890000D01*
Y-2552261D01*
X3853462Y-2464051D01*
X3785949Y-2396538D01*
X3697739Y-2360000D01*
D02*
G37*
G36*
X3630000D02*
X3602261D01*
X3514051Y-2396538D01*
X3446538Y-2464051D01*
X3410000Y-2552261D01*
Y-2580000D01*
X3630000D01*
Y-2360000D01*
D02*
G37*
G36*
X3890000Y-2620000D02*
X3670000D01*
Y-2840000D01*
X3697739D01*
X3785949Y-2803462D01*
X3853462Y-2735949D01*
X3890000Y-2647739D01*
Y-2620000D01*
D02*
G37*
G36*
X3630000D02*
X3410000D01*
Y-2647739D01*
X3446538Y-2735949D01*
X3514051Y-2803462D01*
X3602261Y-2840000D01*
X3630000D01*
Y-2620000D01*
D02*
G37*
%LPD*%
G36*
X1067455Y2061133D02*
X1076034Y2050899D01*
X1067455Y2040665D01*
X1048579Y2021789D01*
X1034329Y2036039D01*
X1031820Y2050000D01*
X1036700Y2054881D01*
X1055204Y2073384D01*
X1067455Y2061133D01*
D02*
G37*
D53*
X1987596Y-1254318D02*
X1990916Y-1257638D01*
D60*
X2625000Y-2225000D02*
D03*
D61*
X1879998D02*
D03*
D62*
X2870001Y197000D02*
D03*
D63*
Y-57000D02*
D03*
D64*
X950000Y865500D02*
D03*
D65*
Y377500D02*
D03*
D66*
X272000Y-2527002D02*
D03*
X-527998D02*
D03*
D67*
X-3747999Y1827998D02*
D03*
Y2691999D02*
D03*
D68*
X-3379999Y1971000D02*
D03*
Y2549002D02*
D03*
D69*
X-3330001Y2691999D02*
D03*
Y1827998D02*
D03*
D70*
X3499998Y1399998D02*
D03*
Y999999D02*
D03*
Y599999D02*
D03*
Y200000D02*
D03*
Y-199999D02*
D03*
Y-599998D02*
D03*
Y-999997D02*
D03*
Y-1400002D02*
D03*
X3800002Y1399998D02*
D03*
Y999999D02*
D03*
Y599999D02*
D03*
Y200000D02*
D03*
Y-199999D02*
D03*
Y-599998D02*
D03*
Y-999997D02*
D03*
Y-1400002D02*
D03*
D72*
X3650000Y-2600000D02*
D03*
Y2600000D02*
D03*
D73*
X-2977500Y-1029291D02*
D03*
X-2850500Y-1034305D02*
D03*
X-2721104Y-1035503D02*
D03*
X-1134368Y1273663D02*
D03*
X-3121893Y1370606D02*
D03*
X-2976760Y1515740D02*
D03*
X-3803930Y1659864D02*
D03*
X1022140Y1526673D02*
D03*
X-2275000Y1822499D02*
D03*
X-1120719Y-1502715D02*
D03*
X-987834Y-1499943D02*
D03*
X-818000Y-1359999D02*
D03*
X-1110502Y-845135D02*
D03*
X-825000Y-950000D02*
D03*
X-870380Y-3716D02*
D03*
X-873790Y115626D02*
D03*
X-345571Y-1292649D02*
D03*
X-250000Y-1289001D02*
D03*
X-138002Y-1285001D02*
D03*
X-42018Y-1286516D02*
D03*
X2047352Y1866063D02*
D03*
X-1834500Y-946906D02*
D03*
X-687998Y-1135000D02*
D03*
X-459998D02*
D03*
X-2411241Y2318655D02*
D03*
X-856199Y-143903D02*
D03*
X-1250000Y-1150000D02*
D03*
X-3157221Y1911761D02*
D03*
X-3097489Y1986279D02*
D03*
X-1392584Y-2704002D02*
D03*
X-3343561Y-873513D02*
D03*
X-3330000Y875000D02*
D03*
X-3122921Y2422702D02*
D03*
X-3127006Y2075245D02*
D03*
X857498Y2038149D02*
D03*
X592500Y2028951D02*
D03*
X707501Y2038149D02*
D03*
X2309999Y1259999D02*
D03*
X2084510Y-915000D02*
D03*
X2536300Y400896D02*
D03*
X2254616Y529826D02*
D03*
X1181653Y-1273761D02*
D03*
X494174Y-1523075D02*
D03*
X207673Y-1295924D02*
D03*
X-579158Y-1230849D02*
D03*
X-2467498Y-1023445D02*
D03*
X-3025000Y-1685008D02*
D03*
X-2975000Y-1975000D02*
D03*
X-3150000Y-2493335D02*
D03*
X-3105479Y-1314490D02*
D03*
X-3432059Y-1026653D02*
D03*
X-3429829Y-1122542D02*
D03*
X-2927498Y-2715000D02*
D03*
X-3330000Y1040000D02*
D03*
X-900000Y2341314D02*
D03*
X1860676Y-1261065D02*
D03*
X1927499Y-684999D02*
D03*
X-2757500Y1345000D02*
D03*
X-3392321Y2155532D02*
D03*
X-3089352Y2164998D02*
D03*
X-3074003Y2261392D02*
D03*
X1604998Y-995000D02*
D03*
Y-884997D02*
D03*
X1715000D02*
D03*
Y-995000D02*
D03*
X-3170000Y2580000D02*
D03*
X-627499Y-516801D02*
D03*
X-3266765Y-1461812D02*
D03*
X-3475605Y-2300000D02*
D03*
X1437778Y-595001D02*
D03*
X1330001D02*
D03*
X2129381Y-1256267D02*
D03*
X1990916Y-1257638D02*
D03*
X1535000Y-1247499D02*
D03*
X660000Y762999D02*
D03*
X1268612Y120409D02*
D03*
X1267431Y1131215D02*
D03*
X1382387Y1086799D02*
D03*
X1852100Y1512502D02*
D03*
X1650000Y1573949D02*
D03*
X1455000Y1575523D02*
D03*
X1247499Y1573949D02*
D03*
X1882607Y1708901D02*
D03*
X2570000Y2877500D02*
D03*
X2906250D02*
D03*
X2400000D02*
D03*
X2762500Y2875000D02*
D03*
X3063751D02*
D03*
X-2460000Y107894D02*
D03*
X-2743335Y-10002D02*
D03*
X-2751935Y-210000D02*
D03*
X-2600000Y-422086D02*
D03*
X-2320000D02*
D03*
X-2150000Y-220000D02*
D03*
Y-50000D02*
D03*
X-2090000Y2560000D02*
D03*
X-2180000Y2530000D02*
D03*
X-2232644Y2642501D02*
D03*
X-2573168Y2260000D02*
D03*
X-2690000Y1140000D02*
D03*
X-3400000Y1660002D02*
D03*
X-3182573Y1056568D02*
D03*
X-3170000Y2750000D02*
D03*
X-3330001Y2860000D02*
D03*
X1030000Y-2710000D02*
D03*
X750000Y-2280000D02*
D03*
X-820000Y-2260000D02*
D03*
X80000Y-1070000D02*
D03*
X890000Y-1270000D02*
D03*
X-1980000Y2355000D02*
D03*
X-2584706Y1822511D02*
D03*
X-3098303Y1836949D02*
D03*
Y1741452D02*
D03*
X-3025000Y-1797916D02*
D03*
X-893286Y499998D02*
D03*
X970000Y-840000D02*
D03*
X1774300Y-250000D02*
D03*
X910002Y1386022D02*
D03*
X1022140D02*
D03*
X-990000Y-288201D02*
D03*
X-876863Y1926920D02*
D03*
X-440000Y2200000D02*
D03*
X1424897Y883049D02*
D03*
X1427675Y794694D02*
D03*
X1097500Y1874059D02*
D03*
Y2000000D02*
D03*
Y2101799D02*
D03*
X1002158Y1997500D02*
D03*
X1011109Y1874059D02*
D03*
Y2100000D02*
D03*
X-1460000Y2040000D02*
D03*
X-1630000Y1825000D02*
D03*
X-1961500Y-1011500D02*
D03*
X-2088500Y-1013500D02*
D03*
X-1290500Y63501D02*
D03*
X-2543108Y2749999D02*
D03*
X-1825000Y1800000D02*
D03*
X-2088500Y1825000D02*
D03*
X-1290500Y-317499D02*
D03*
X-100999Y127999D02*
D03*
X-100000Y0D02*
D03*
%TF.MD5,9f4e6cb8ae2cd273a1c94f661016b7cc*%
M02*
