%TF.GenerationSoftware,Altium Limited,Altium Designer,25.4.2 (15)*%
G04 Layer_Color=0*
%FSLAX45Y45*%
%MOMM*%
%TF.SameCoordinates,1AD04230-50D1-441F-A6C9-0C8C8D58179F*%
%TF.FilePolarity,Positive*%
%TF.FileFunction,Plated,1,4,PTH,Drill*%
%TF.Part,Single*%
G01*
G75*
%TA.AperFunction,ComponentDrill*%
%ADD126C,1.02000*%
%ADD127C,0.60000*%
%ADD128O,1.40000X0.60000*%
%ADD129O,1.70000X0.60000*%
%ADD130C,1.50000*%
%TA.AperFunction,OtherDrill,Pad Free-MH (36.5mm,-26mm)*%
%ADD131C,2.20000*%
%TA.AperFunction,OtherDrill,Pad Free-MH (36.5mm,26mm)*%
%ADD132C,2.20000*%
%TA.AperFunction,ViaDrill,NotFilled*%
%ADD133C,0.30000*%
D126*
X2870001Y197000D02*
D03*
Y-57000D02*
D03*
D127*
X950000Y865500D02*
D03*
Y377500D02*
D03*
D128*
X-3747999Y1827998D02*
D03*
Y2691999D02*
D03*
D129*
X-3330001D02*
D03*
Y1827998D02*
D03*
D130*
X3499998Y1399998D02*
D03*
Y999999D02*
D03*
Y599999D02*
D03*
Y200000D02*
D03*
Y-199999D02*
D03*
Y-599998D02*
D03*
Y-999997D02*
D03*
Y-1400002D02*
D03*
X3800002Y1399998D02*
D03*
Y999999D02*
D03*
Y599999D02*
D03*
Y200000D02*
D03*
Y-199999D02*
D03*
Y-599998D02*
D03*
Y-999997D02*
D03*
Y-1400002D02*
D03*
D131*
X3650000Y-2600000D02*
D03*
D132*
Y2600000D02*
D03*
D133*
X-2977500Y-1029291D02*
D03*
X-2850500Y-1034305D02*
D03*
X-2721104Y-1035503D02*
D03*
X-1134368Y1273663D02*
D03*
X-3121893Y1370606D02*
D03*
X-2976760Y1515740D02*
D03*
X-3803930Y1659864D02*
D03*
X1022140Y1526673D02*
D03*
X-2275000Y1822499D02*
D03*
X-1120719Y-1502715D02*
D03*
X-987834Y-1499943D02*
D03*
X-818000Y-1359999D02*
D03*
X-1110502Y-845135D02*
D03*
X-825000Y-950000D02*
D03*
X-870380Y-3716D02*
D03*
X-873790Y115626D02*
D03*
X-345571Y-1292649D02*
D03*
X-250000Y-1289001D02*
D03*
X-138002Y-1285001D02*
D03*
X-42018Y-1286516D02*
D03*
X2047352Y1866063D02*
D03*
X-1834500Y-946906D02*
D03*
X-687998Y-1135000D02*
D03*
X-459998D02*
D03*
X-2411241Y2318655D02*
D03*
X-856199Y-143903D02*
D03*
X-1250000Y-1150000D02*
D03*
X-3157221Y1911761D02*
D03*
X-3097489Y1986279D02*
D03*
X-1392584Y-2704002D02*
D03*
X-3343561Y-873513D02*
D03*
X-3330000Y875000D02*
D03*
X-3122921Y2422702D02*
D03*
X-3127006Y2075245D02*
D03*
X857498Y2038149D02*
D03*
X592500Y2028951D02*
D03*
X707501Y2038149D02*
D03*
X2309999Y1259999D02*
D03*
X2084510Y-915000D02*
D03*
X2536300Y400896D02*
D03*
X2254616Y529826D02*
D03*
X1181653Y-1273761D02*
D03*
X494174Y-1523075D02*
D03*
X207673Y-1295924D02*
D03*
X-579158Y-1230849D02*
D03*
X-2467498Y-1023445D02*
D03*
X-3025000Y-1685008D02*
D03*
X-2975000Y-1975000D02*
D03*
X-3150000Y-2493335D02*
D03*
X-3105479Y-1314490D02*
D03*
X-3432059Y-1026653D02*
D03*
X-3429829Y-1122542D02*
D03*
X-2927498Y-2715000D02*
D03*
X-3330000Y1040000D02*
D03*
X-900000Y2341314D02*
D03*
X1860676Y-1261065D02*
D03*
X1927499Y-684999D02*
D03*
X-2757500Y1345000D02*
D03*
X-3392321Y2155532D02*
D03*
X-3089352Y2164998D02*
D03*
X-3074003Y2261392D02*
D03*
X1604998Y-995000D02*
D03*
Y-884997D02*
D03*
X1715000D02*
D03*
Y-995000D02*
D03*
X-3170000Y2580000D02*
D03*
X-627499Y-516801D02*
D03*
X-3266765Y-1461812D02*
D03*
X-3475605Y-2300000D02*
D03*
X1437778Y-595001D02*
D03*
X1330001D02*
D03*
X2129381Y-1256267D02*
D03*
X1990916Y-1257638D02*
D03*
X1535000Y-1247499D02*
D03*
X660000Y762999D02*
D03*
X1268612Y120409D02*
D03*
X1267431Y1131215D02*
D03*
X1382387Y1086799D02*
D03*
X1852100Y1512502D02*
D03*
X1650000Y1573949D02*
D03*
X1455000Y1575523D02*
D03*
X1247499Y1573949D02*
D03*
X1882607Y1708901D02*
D03*
X2570000Y2877500D02*
D03*
X2906250D02*
D03*
X2400000D02*
D03*
X2762500Y2875000D02*
D03*
X3063751D02*
D03*
X-2460000Y107894D02*
D03*
X-2743335Y-10002D02*
D03*
X-2751935Y-210000D02*
D03*
X-2600000Y-422086D02*
D03*
X-2320000D02*
D03*
X-2150000Y-220000D02*
D03*
Y-50000D02*
D03*
X-2090000Y2560000D02*
D03*
X-2180000Y2530000D02*
D03*
X-2232644Y2642501D02*
D03*
X-2573168Y2260000D02*
D03*
X-2690000Y1140000D02*
D03*
X-3400000Y1660002D02*
D03*
X-3182573Y1056568D02*
D03*
X-3170000Y2750000D02*
D03*
X-3330001Y2860000D02*
D03*
X1030000Y-2710000D02*
D03*
X750000Y-2280000D02*
D03*
X-820000Y-2260000D02*
D03*
X80000Y-1070000D02*
D03*
X890000Y-1270000D02*
D03*
X-1980000Y2355000D02*
D03*
X-2584706Y1822511D02*
D03*
X-3098303Y1836949D02*
D03*
Y1741452D02*
D03*
X-3025000Y-1797916D02*
D03*
X-893286Y499998D02*
D03*
X970000Y-840000D02*
D03*
X1774300Y-250000D02*
D03*
X910002Y1386022D02*
D03*
X1022140D02*
D03*
X-990000Y-288201D02*
D03*
X-876863Y1926920D02*
D03*
X-440000Y2200000D02*
D03*
X1424897Y883049D02*
D03*
X1427675Y794694D02*
D03*
X1097500Y1874059D02*
D03*
Y2000000D02*
D03*
Y2101799D02*
D03*
X1002158Y1997500D02*
D03*
X1011109Y1874059D02*
D03*
Y2100000D02*
D03*
X-1460000Y2040000D02*
D03*
X-1630000Y1825000D02*
D03*
X-1961500Y-1011500D02*
D03*
X-2088500Y-1013500D02*
D03*
X-1290500Y63501D02*
D03*
X-2543108Y2749999D02*
D03*
X-1825000Y1800000D02*
D03*
X-2088500Y1825000D02*
D03*
X-1290500Y-317499D02*
D03*
X-100999Y127999D02*
D03*
X-100000Y0D02*
D03*
%TF.MD5,fdf33c4518cf720054d15e796aa3b95b*%
M02*
