%TF.GenerationSoftware,Altium Limited,Altium Designer,25.4.2 (15)*%
G04 Layer_Physical_Order=4*
G04 Layer_Color=16711680*
%FSLAX45Y45*%
%MOMM*%
%TF.SameCoordinates,1AD04230-50D1-441F-A6C9-0C8C8D58179F*%
%TF.FilePolarity,Positive*%
%TF.FileFunction,Copper,L4,Bot,Signal*%
%TF.Part,Single*%
G01*
G75*
%TA.AperFunction,Conductor*%
%ADD10C,0.40000*%
%ADD52C,0.30000*%
%ADD57C,0.26017*%
%TA.AperFunction,ComponentPad*%
%ADD60C,1.00000*%
%ADD61C,1.25000*%
%ADD62R,1.57000X1.57000*%
%ADD63C,1.57000*%
%ADD64R,1.10000X1.10000*%
%ADD65C,1.10000*%
%ADD66C,0.90000*%
%TA.AperFunction,TestPad*%
%ADD67O,1.80000X1.00000*%
%ADD68C,0.65000*%
%ADD69O,2.10000X1.00000*%
%TA.AperFunction,ComponentPad*%
%ADD70C,2.50000*%
%ADD71R,2.50000X2.50000*%
%TA.AperFunction,ViaPad*%
%ADD72C,4.00000*%
%ADD73C,0.60000*%
G36*
X-3750000Y2949999D02*
X3775000Y2950000D01*
X3804837D01*
X3859968Y2927164D01*
X3902164Y2884968D01*
X3925000Y2829837D01*
Y2800000D01*
Y1506730D01*
X3911142Y1500990D01*
X3862134Y1549998D01*
X3737870D01*
X3660606Y1472733D01*
X3650000Y1462132D01*
X3639394Y1472733D01*
X3562130Y1549998D01*
X3437866D01*
X3349998Y1462130D01*
Y1337866D01*
X3437866Y1249998D01*
X3562130D01*
X3639394Y1327262D01*
X3650000Y1337863D01*
X3660606Y1327262D01*
X3737870Y1249998D01*
X3862134D01*
X3911142Y1299006D01*
X3925000Y1293265D01*
Y1106731D01*
X3911142Y1100991D01*
X3862134Y1149998D01*
X3737870D01*
X3660606Y1072734D01*
X3650000Y1062133D01*
X3639394Y1072734D01*
X3562130Y1149998D01*
X3437866D01*
X3349998Y1062130D01*
Y937867D01*
X3437866Y849999D01*
X3562130D01*
X3639394Y927263D01*
X3650000Y937864D01*
X3660606Y927263D01*
X3737870Y849999D01*
X3862134D01*
X3911142Y899006D01*
X3925000Y893266D01*
Y706732D01*
X3911142Y700991D01*
X3862134Y749999D01*
X3737870D01*
X3660606Y672735D01*
X3650000Y662134D01*
X3639394Y672735D01*
X3562130Y749999D01*
X3437866D01*
X3349998Y662131D01*
Y537867D01*
X3437866Y449999D01*
X3562130D01*
X3639394Y527264D01*
X3650000Y537865D01*
X3660606Y527264D01*
X3737870Y449999D01*
X3862134D01*
X3911142Y499007D01*
X3925000Y493267D01*
Y327945D01*
X3911142Y322205D01*
X3868347Y365000D01*
X3820002D01*
Y200000D01*
Y35000D01*
X3868347D01*
X3911142Y77795D01*
X3925000Y72055D01*
Y-72054D01*
X3911142Y-77794D01*
X3868347Y-34999D01*
X3820002D01*
Y-199999D01*
Y-364999D01*
X3868347D01*
X3911142Y-322204D01*
X3925000Y-327944D01*
Y-493266D01*
X3911142Y-499006D01*
X3862134Y-449998D01*
X3737870D01*
X3660606Y-527263D01*
X3650000Y-537864D01*
X3639394Y-527263D01*
X3562130Y-449998D01*
X3437866D01*
X3349998Y-537866D01*
Y-662130D01*
X3437866Y-749998D01*
X3562130D01*
X3639394Y-672734D01*
X3650000Y-662133D01*
X3660606Y-672734D01*
X3737870Y-749998D01*
X3862134D01*
X3911142Y-700990D01*
X3925000Y-706731D01*
Y-893265D01*
X3911142Y-899005D01*
X3862134Y-849998D01*
X3737870D01*
X3660606Y-927262D01*
X3650000Y-937863D01*
X3639394Y-927262D01*
X3562130Y-849998D01*
X3437866D01*
X3349998Y-937866D01*
Y-1062129D01*
X3437866Y-1149997D01*
X3562130D01*
X3639394Y-1072733D01*
X3650000Y-1062132D01*
X3660606Y-1072733D01*
X3737870Y-1149997D01*
X3862134D01*
X3911142Y-1100990D01*
X3925000Y-1106730D01*
Y-1250002D01*
X3650002D01*
Y-1316661D01*
X3635002Y-1322874D01*
X3562130Y-1250002D01*
X3437866D01*
X3349998Y-1337870D01*
Y-1462134D01*
X3437866Y-1550002D01*
X3562130D01*
X3635002Y-1477129D01*
X3650002Y-1483342D01*
Y-1550002D01*
X3925000D01*
Y-2825000D01*
Y-2844891D01*
X3909776Y-2881645D01*
X3881645Y-2909776D01*
X3844891Y-2925000D01*
X-3884946D01*
X-3903323Y-2917388D01*
X-3917388Y-2903323D01*
X-3925000Y-2884946D01*
Y-2875000D01*
X-3925000Y2800000D01*
X-3925000Y2800000D01*
X-3925000D01*
X-3922514Y2832323D01*
X-3893181Y2890145D01*
X-3843952Y2932341D01*
X-3782324Y2952486D01*
X-3750000Y2949999D01*
D02*
G37*
%LPC*%
G36*
X3697739Y2840000D02*
X3670000D01*
Y2620000D01*
X3890000D01*
Y2647739D01*
X3853462Y2735949D01*
X3785949Y2803462D01*
X3697739Y2840000D01*
D02*
G37*
G36*
X3630000D02*
X3602261D01*
X3514051Y2803462D01*
X3446538Y2735949D01*
X3410000Y2647739D01*
Y2620000D01*
X3630000D01*
Y2840000D01*
D02*
G37*
G36*
X-3707999Y2773178D02*
X-3787999D01*
X-3845401Y2749401D01*
X-3869178Y2691999D01*
X-3845401Y2634597D01*
X-3787999Y2610820D01*
X-3707999D01*
X-3650597Y2634597D01*
X-3626820Y2691999D01*
X-3650597Y2749401D01*
X-3707999Y2773178D01*
D02*
G37*
G36*
X-3275001D02*
X-3385001D01*
X-3442404Y2749401D01*
X-3466181Y2691999D01*
X-3442404Y2634597D01*
X-3390664Y2613165D01*
X-3393648Y2598165D01*
X-3411104D01*
X-3416965Y2598166D01*
X-3425757Y2597166D01*
Y2597150D01*
X-3425757D01*
X-3425757Y2586807D01*
Y2519775D01*
X-3422026Y2510768D01*
X-3415133Y2503875D01*
X-3406126Y2500144D01*
X-3352169D01*
X-3342795Y2504027D01*
X-3335620Y2511202D01*
X-3331737Y2520577D01*
Y2586147D01*
X-3334021Y2591661D01*
X-3338180Y2595820D01*
X-3338178Y2596183D01*
X-3335110Y2610820D01*
X-3275001D01*
X-3217599Y2634597D01*
X-3193822Y2691999D01*
X-3217599Y2749401D01*
X-3275001Y2773178D01*
D02*
G37*
G36*
X-2522398Y2799999D02*
X-2563819D01*
X-2593108Y2770710D01*
Y2729288D01*
X-2563819Y2699999D01*
X-2522398D01*
X-2510281Y2712115D01*
X-2264736D01*
X-2253631Y2698444D01*
X-2255896Y2689959D01*
X-2282644Y2663212D01*
Y2648593D01*
X-2598564Y2332674D01*
X-2609659Y2305886D01*
X-2609659Y2305885D01*
Y2294219D01*
X-2623168Y2280710D01*
Y2239289D01*
X-2593879Y2210000D01*
X-2552458D01*
X-2523168Y2239289D01*
Y2280710D01*
X-2533272Y2290814D01*
X-2231585Y2592501D01*
X-2211933D01*
X-2184378Y2620056D01*
X-2182644Y2621790D01*
X-2167644Y2622920D01*
X-2138891Y2594167D01*
X-2142606Y2583618D01*
X-2158325Y2579035D01*
X-2159289Y2580000D01*
X-2200711D01*
X-2230000Y2550711D01*
Y2509289D01*
X-2212472Y2491761D01*
Y2458450D01*
X-2347383Y2323539D01*
X-2361241Y2329279D01*
Y2339365D01*
X-2390530Y2368655D01*
X-2431951D01*
X-2461241Y2339365D01*
Y2297944D01*
X-2431951Y2268655D01*
X-2421865D01*
X-2416125Y2254797D01*
X-3422961Y1247961D01*
X-3432472Y1225000D01*
Y825000D01*
X-3422961Y802039D01*
X-3009971Y389050D01*
Y-991052D01*
X-3027500Y-1008581D01*
Y-1050002D01*
X-2998210Y-1079291D01*
X-2956789D01*
X-2927500Y-1050002D01*
Y-1008581D01*
X-2945028Y-991052D01*
Y402500D01*
X-2954539Y425461D01*
X-3367528Y838450D01*
Y987220D01*
X-3353670Y992960D01*
X-3350711Y990000D01*
X-3333576D01*
X-3256788Y913213D01*
X-3256788Y913212D01*
X-3230000Y902116D01*
X-2300000D01*
X-2300000Y902116D01*
X-2273212Y913212D01*
X-1603213Y1583212D01*
X-1603212Y1583212D01*
X-1592116Y1610000D01*
Y1792173D01*
X-1580000Y1804289D01*
Y1845711D01*
X-1609289Y1875000D01*
X-1650711D01*
X-1680000Y1845711D01*
Y1804289D01*
X-1667884Y1792173D01*
Y1625692D01*
X-2315692Y977883D01*
X-3214308D01*
X-3280000Y1043576D01*
Y1060711D01*
X-3309289Y1090000D01*
X-3350711D01*
X-3353670Y1087040D01*
X-3367528Y1092780D01*
Y1211550D01*
X-2157039Y2422039D01*
X-2147528Y2445000D01*
Y2491761D01*
X-2130000Y2509289D01*
Y2509691D01*
X-2116142Y2515432D01*
X-2110711Y2510000D01*
X-2069289D01*
X-2040000Y2539289D01*
Y2580711D01*
X-2055943Y2596654D01*
Y2602678D01*
X-2055943Y2602679D01*
X-2067039Y2629466D01*
X-2067039Y2629467D01*
X-2121568Y2683995D01*
X-2121568Y2683996D01*
X-2121568Y2683996D01*
X-2214359Y2776787D01*
X-2241147Y2787883D01*
X-2241147Y2787883D01*
X-2510281D01*
X-2522398Y2799999D01*
D02*
G37*
G36*
X3890000Y2580000D02*
X3670000D01*
Y2360000D01*
X3697739D01*
X3785949Y2396538D01*
X3853462Y2464051D01*
X3890000Y2552261D01*
Y2580000D01*
D02*
G37*
G36*
X3630000D02*
X3410000D01*
Y2552261D01*
X3446538Y2464051D01*
X3514051Y2396538D01*
X3602261Y2360000D01*
X3630000D01*
Y2580000D01*
D02*
G37*
G36*
X-1959289Y2405000D02*
X-2000711D01*
X-2030000Y2375711D01*
Y2334290D01*
X-2000711Y2305000D01*
X-1959289D01*
X-1930000Y2334290D01*
Y2375711D01*
X-1959289Y2405000D01*
D02*
G37*
G36*
X-879289Y2391314D02*
X-920711D01*
X-950000Y2362024D01*
Y2320603D01*
X-920711Y2291314D01*
X-879289D01*
X-850000Y2320603D01*
Y2362024D01*
X-879289Y2391314D01*
D02*
G37*
G36*
X-419289Y2250000D02*
X-460711D01*
X-490000Y2220711D01*
Y2179289D01*
X-460711Y2150000D01*
X-419289D01*
X-390000Y2179289D01*
Y2220711D01*
X-419289Y2250000D01*
D02*
G37*
G36*
X1118210Y2151799D02*
X1076789D01*
X1053405Y2128415D01*
X1031820Y2150000D01*
X990398D01*
X961109Y2120711D01*
Y2079289D01*
X978938Y2061460D01*
X981447Y2047500D01*
X976567Y2042619D01*
X952158Y2018210D01*
Y1976789D01*
X981447Y1947500D01*
X1022869D01*
X1051079Y1975710D01*
X1076789Y1950000D01*
X1118210D01*
X1147500Y1979289D01*
Y2020710D01*
X1127545Y2040665D01*
X1118965Y2050899D01*
X1127545Y2061133D01*
X1147500Y2081088D01*
Y2122510D01*
X1118210Y2151799D01*
D02*
G37*
G36*
X-3102210Y2472702D02*
X-3143632D01*
X-3172921Y2443412D01*
Y2401991D01*
X-3143632Y2372702D01*
X-3126497D01*
X-2994153Y2240357D01*
Y2138302D01*
X-3019327Y2113128D01*
X-3049299D01*
X-3055512Y2128128D01*
X-3039353Y2144288D01*
Y2185709D01*
X-3068642Y2214998D01*
X-3110063D01*
X-3134480Y2190581D01*
X-3356660D01*
X-3371610Y2205532D01*
X-3413032D01*
X-3442321Y2176243D01*
Y2134821D01*
X-3413032Y2105532D01*
X-3371610D01*
X-3347193Y2129949D01*
X-3164225D01*
X-3158011Y2114949D01*
X-3177006Y2095955D01*
Y2054534D01*
X-3147716Y2025245D01*
X-3106295D01*
X-3094179Y2037361D01*
X-3003635D01*
X-3003635Y2037361D01*
X-2976847Y2048457D01*
X-2929482Y2095822D01*
X-2929481Y2095823D01*
X-2918385Y2122610D01*
X-2918385Y2122611D01*
Y2256049D01*
X-2918385Y2256050D01*
X-2929481Y2282837D01*
X-3072921Y2426278D01*
Y2443412D01*
X-3102210Y2472702D01*
D02*
G37*
G36*
X878209Y2088148D02*
X836788D01*
X807499Y2058859D01*
Y2017438D01*
X836788Y1988149D01*
X878209D01*
X907498Y2017438D01*
Y2058859D01*
X878209Y2088148D01*
D02*
G37*
G36*
X-3347421Y2025245D02*
X-3409750D01*
X-3428217Y2017595D01*
X-3442351Y2003461D01*
X-3450000Y1984994D01*
Y1962053D01*
X-3443153Y1945522D01*
X-3430500Y1932869D01*
X-3413969Y1926022D01*
X-3351023D01*
X-3341378Y1930016D01*
X-3333996Y1937398D01*
X-3330001Y1947043D01*
Y2007825D01*
X-3333312Y2015817D01*
X-3339429Y2021934D01*
X-3347421Y2025245D01*
D02*
G37*
G36*
X1118210Y1924059D02*
X1076789D01*
X1054304Y1901575D01*
X1031820Y1924059D01*
X990398D01*
X961109Y1894770D01*
Y1853349D01*
X990398Y1824060D01*
X1031820D01*
X1054304Y1846544D01*
X1076789Y1824060D01*
X1118210D01*
X1147500Y1853349D01*
Y1894770D01*
X1118210Y1924059D01*
D02*
G37*
G36*
X-856152Y1976920D02*
X-897573D01*
X-926863Y1947630D01*
Y1906209D01*
X-897573Y1876920D01*
X-856152D01*
X-826863Y1906209D01*
Y1947630D01*
X-856152Y1976920D01*
D02*
G37*
G36*
X-2067789Y1875000D02*
X-2109210D01*
X-2138500Y1845711D01*
Y1804289D01*
X-2109210Y1775000D01*
X-2067789D01*
X-2038500Y1804289D01*
Y1845711D01*
X-2067789Y1875000D01*
D02*
G37*
G36*
X-2563995Y1872511D02*
X-2605416D01*
X-2634705Y1843222D01*
Y1801801D01*
X-2605416Y1772512D01*
X-2563995D01*
X-2534706Y1801801D01*
Y1843222D01*
X-2563995Y1872511D01*
D02*
G37*
G36*
X-3275001Y1909177D02*
X-3385001D01*
X-3442404Y1885400D01*
X-3466181Y1827998D01*
X-3442404Y1770596D01*
X-3385001Y1746819D01*
X-3275001D01*
X-3217599Y1770596D01*
X-3193822Y1827998D01*
X-3217599Y1885400D01*
X-3275001Y1909177D01*
D02*
G37*
G36*
X-3707999D02*
X-3787999D01*
X-3845401Y1885400D01*
X-3869178Y1827998D01*
X-3845401Y1770596D01*
X-3787999Y1746819D01*
X-3707999D01*
X-3650597Y1770596D01*
X-3626820Y1827998D01*
X-3650597Y1885400D01*
X-3707999Y1909177D01*
D02*
G37*
G36*
X-3077593Y1886949D02*
X-3119014D01*
X-3148303Y1857659D01*
Y1816238D01*
X-3121266Y1789200D01*
X-3148303Y1762163D01*
Y1720742D01*
X-3119014Y1691452D01*
X-3077593D01*
X-3048303Y1720742D01*
Y1762163D01*
X-3075341Y1789200D01*
X-3048303Y1816238D01*
Y1857659D01*
X-3077593Y1886949D01*
D02*
G37*
G36*
X1042851Y1576673D02*
X1001430D01*
X972141Y1547384D01*
Y1505962D01*
X1001430Y1476673D01*
X1042851D01*
X1072140Y1505962D01*
Y1547384D01*
X1042851Y1576673D01*
D02*
G37*
G36*
Y1436022D02*
X1001430D01*
X974164Y1408755D01*
X966071Y1407599D01*
X957979Y1408755D01*
X930712Y1436022D01*
X889291D01*
X860002Y1406732D01*
Y1365311D01*
X889291Y1336022D01*
X930712D01*
X957979Y1363288D01*
X966071Y1364444D01*
X974164Y1363288D01*
X1001430Y1336022D01*
X1042851D01*
X1072140Y1365311D01*
Y1406732D01*
X1042851Y1436022D01*
D02*
G37*
G36*
X-1439289Y2090000D02*
X-1480711D01*
X-1510000Y2060711D01*
Y2019289D01*
X-1480711Y1990000D01*
X-1463576D01*
X-1172251Y1698676D01*
Y1306490D01*
X-1184368Y1294373D01*
Y1252952D01*
X-1155078Y1223663D01*
X-1113657D01*
X-1084368Y1252952D01*
Y1294373D01*
X-1096484Y1306490D01*
Y1714368D01*
X-1107580Y1741156D01*
X-1107580Y1741156D01*
X-1410000Y2043576D01*
Y2060711D01*
X-1439289Y2090000D01*
D02*
G37*
G36*
X2330710Y1309999D02*
X2289288D01*
X2259999Y1280710D01*
Y1239288D01*
X2289288Y1209999D01*
X2330710D01*
X2359999Y1239288D01*
Y1280710D01*
X2330710Y1309999D01*
D02*
G37*
G36*
X-2254289Y1872499D02*
X-2295710D01*
X-2324999Y1843210D01*
Y1801789D01*
X-2307471Y1784260D01*
Y1680877D01*
X-2901736Y1086612D01*
X-3141907D01*
X-3161862Y1106568D01*
X-3203283D01*
X-3232573Y1077278D01*
Y1035857D01*
X-3203283Y1006568D01*
X-3161862D01*
X-3146761Y1021669D01*
X-2888286D01*
X-2865325Y1031180D01*
X-2753858Y1142646D01*
X-2740000Y1136906D01*
Y1119289D01*
X-2710711Y1090000D01*
X-2669289D01*
X-2651761Y1107528D01*
X-2234998D01*
X-2212037Y1117039D01*
X-1803952Y1525124D01*
X-1794441Y1548085D01*
Y1759848D01*
X-1775000Y1779289D01*
Y1820711D01*
X-1804289Y1850000D01*
X-1845711D01*
X-1875000Y1820711D01*
Y1779289D01*
X-1859385Y1763674D01*
Y1561535D01*
X-2248448Y1172472D01*
X-2651761D01*
X-2669289Y1190000D01*
X-2686906D01*
X-2692646Y1203858D01*
X-2252038Y1644466D01*
X-2242528Y1667426D01*
Y1784260D01*
X-2225000Y1801789D01*
Y1843210D01*
X-2254289Y1872499D01*
D02*
G37*
G36*
X1030000Y945500D02*
X870000D01*
Y785500D01*
X1030000D01*
Y945500D01*
D02*
G37*
G36*
X1445607Y933049D02*
X1404186D01*
X1374897Y903760D01*
Y862339D01*
X1399753Y837482D01*
X1377675Y815405D01*
Y773983D01*
X1406964Y744694D01*
X1448385D01*
X1477675Y773983D01*
Y815405D01*
X1452819Y840261D01*
X1474896Y862339D01*
Y903760D01*
X1445607Y933049D01*
D02*
G37*
G36*
X-872575Y549998D02*
X-913997D01*
X-943286Y520709D01*
Y479288D01*
X-913997Y449999D01*
X-872575D01*
X-843286Y479288D01*
Y520709D01*
X-872575Y549998D01*
D02*
G37*
G36*
X2557011Y450895D02*
X2515590D01*
X2486301Y421606D01*
Y380185D01*
X2515590Y350896D01*
X2557011D01*
X2586300Y380185D01*
Y421606D01*
X2557011Y450895D01*
D02*
G37*
G36*
X983137Y457500D02*
X916863D01*
X870000Y410637D01*
Y344363D01*
X916863Y297500D01*
X983137D01*
X1030000Y344363D01*
Y410637D01*
X983137Y457500D01*
D02*
G37*
G36*
X3780002Y365000D02*
X3731657D01*
X3639394Y272736D01*
X3562130Y350000D01*
X3437866D01*
X3349998Y262132D01*
Y137868D01*
X3437866Y50000D01*
X3562130D01*
X3639394Y127264D01*
X3731657Y35000D01*
X3780002D01*
Y200000D01*
Y365000D01*
D02*
G37*
G36*
X2973501Y300500D02*
X2766501D01*
Y93500D01*
X2973501D01*
Y300500D01*
D02*
G37*
G36*
X-157938Y217410D02*
X-1169062D01*
X-1192023Y207899D01*
X-1286421Y113500D01*
X-1311210D01*
X-1340499Y84211D01*
Y42790D01*
X-1311210Y13501D01*
X-1269789D01*
X-1240500Y42790D01*
Y67579D01*
X-1155612Y152467D01*
X-927257D01*
X-921517Y138609D01*
X-923790Y136337D01*
Y94915D01*
X-894500Y65626D01*
X-853079D01*
X-823790Y94915D01*
Y136337D01*
X-826062Y138609D01*
X-820322Y152467D01*
X-171389D01*
X-150999Y132077D01*
Y107289D01*
X-121710Y77999D01*
X-80289D01*
X-50999Y107289D01*
Y148710D01*
X-80289Y177999D01*
X-105078D01*
X-134978Y207899D01*
X-157938Y217410D01*
D02*
G37*
G36*
X-79289Y50000D02*
X-120711D01*
X-150000Y20711D01*
Y-4078D01*
X-182166Y-36244D01*
X-815485D01*
X-820380Y-24426D01*
Y16995D01*
X-849669Y46284D01*
X-891091D01*
X-920380Y16995D01*
Y-24426D01*
X-925275Y-36244D01*
X-1041716D01*
X-1064677Y-45755D01*
X-1286421Y-267500D01*
X-1311210D01*
X-1340499Y-296789D01*
Y-338210D01*
X-1311210Y-367499D01*
X-1269789D01*
X-1240500Y-338210D01*
Y-313421D01*
X-1028266Y-101187D01*
X-903791D01*
X-898051Y-115045D01*
X-906199Y-123193D01*
Y-164614D01*
X-876909Y-193903D01*
X-835488D01*
X-806199Y-164614D01*
Y-123193D01*
X-814346Y-115045D01*
X-808606Y-101187D01*
X-168716D01*
X-145755Y-91676D01*
X-104078Y-50000D01*
X-79289D01*
X-50000Y-20711D01*
Y20711D01*
X-79289Y50000D01*
D02*
G37*
G36*
X3780002Y-34999D02*
X3731657D01*
X3639394Y-127263D01*
X3562130Y-49999D01*
X3437866D01*
X3349998Y-137867D01*
Y-262131D01*
X3437866Y-349999D01*
X3562130D01*
X3639394Y-272735D01*
X3731657Y-364999D01*
X3780002D01*
Y-199999D01*
Y-34999D01*
D02*
G37*
G36*
X2912872Y46500D02*
X2827130D01*
X2766501Y-14129D01*
Y-99872D01*
X2827130Y-160500D01*
X2912872D01*
X2973501Y-99872D01*
Y-14129D01*
X2912872Y46500D01*
D02*
G37*
G36*
X1795011Y-200000D02*
X1753589D01*
X1724300Y-229289D01*
Y-270711D01*
X1753589Y-300000D01*
X1795011D01*
X1824300Y-270711D01*
Y-229289D01*
X1795011Y-200000D01*
D02*
G37*
G36*
X-969289Y-238201D02*
X-1010711D01*
X-1040000Y-267491D01*
Y-308912D01*
X-1010711Y-338201D01*
X-969289D01*
X-940000Y-308912D01*
Y-267491D01*
X-969289Y-238201D01*
D02*
G37*
G36*
X1948210Y-634999D02*
X1906788D01*
X1877499Y-664288D01*
Y-672335D01*
X-2143794D01*
X-2166755Y-681846D01*
X-2458354Y-973445D01*
X-2488209D01*
X-2517498Y-1002735D01*
Y-1044156D01*
X-2488209Y-1073445D01*
X-2446787D01*
X-2417498Y-1044156D01*
Y-1024433D01*
X-2130343Y-737278D01*
X1899574D01*
X1906287Y-734498D01*
X1906788Y-734999D01*
X1948210D01*
X1977499Y-705710D01*
Y-664288D01*
X1948210Y-634999D01*
D02*
G37*
G36*
X990711Y-790000D02*
X949289D01*
X920000Y-819289D01*
Y-860711D01*
X949289Y-890000D01*
X990711D01*
X1020000Y-860711D01*
Y-819289D01*
X990711Y-790000D01*
D02*
G37*
G36*
X2105220Y-865000D02*
X2063799D01*
X2034510Y-894289D01*
Y-935711D01*
X2063799Y-965000D01*
X2105220D01*
X2134510Y-935711D01*
Y-894289D01*
X2105220Y-865000D01*
D02*
G37*
G36*
X-1813789Y-896906D02*
X-1855210D01*
X-1884500Y-926195D01*
Y-967617D01*
X-1855210Y-996906D01*
X-1813789D01*
X-1796261Y-979378D01*
X-866333D01*
X-845711Y-1000000D01*
X-804289D01*
X-775000Y-970711D01*
Y-929289D01*
X-804289Y-900000D01*
X-845711D01*
X-860145Y-914434D01*
X-1796261D01*
X-1813789Y-896906D01*
D02*
G37*
G36*
X-1940789Y-961500D02*
X-1982210D01*
X-2011500Y-990789D01*
Y-1023365D01*
X-2026500Y-1029578D01*
X-2038500Y-1017578D01*
Y-992789D01*
X-2067789Y-963500D01*
X-2109210D01*
X-2138500Y-992789D01*
Y-1034210D01*
X-2109210Y-1063500D01*
X-2084422D01*
X-1900394Y-1247527D01*
X-1906607Y-1262527D01*
X-2455897D01*
X-2559467Y-1158957D01*
X-2570351Y-1132680D01*
X-2570351Y-1132680D01*
X-2671104Y-1031927D01*
Y-1014792D01*
X-2700394Y-985503D01*
X-2741815D01*
X-2771104Y-1014792D01*
Y-1046566D01*
X-2786104Y-1052779D01*
X-2800500Y-1038383D01*
Y-1013594D01*
X-2829789Y-984305D01*
X-2871210D01*
X-2900500Y-1013594D01*
Y-1055016D01*
X-2871210Y-1084305D01*
X-2846422D01*
X-2827180Y-1103546D01*
Y-1105793D01*
X-2817669Y-1128754D01*
X-2488519Y-1457904D01*
X-2465558Y-1467415D01*
X-1175728D01*
X-1169988Y-1481273D01*
X-1170719Y-1482004D01*
Y-1523425D01*
X-1141430Y-1552715D01*
X-1100008D01*
X-1070719Y-1523425D01*
Y-1482004D01*
X-1071450Y-1481273D01*
X-1065710Y-1467415D01*
X-1042729D01*
X-1037834Y-1479233D01*
Y-1520654D01*
X-1008545Y-1549943D01*
X-967123D01*
X-937834Y-1520654D01*
Y-1479233D01*
X-932939Y-1467415D01*
X71898D01*
X94859Y-1457904D01*
X206839Y-1345924D01*
X228383D01*
X257673Y-1316635D01*
Y-1275214D01*
X228383Y-1245924D01*
X186962D01*
X157673Y-1275214D01*
Y-1303247D01*
X58448Y-1402472D01*
X-77791D01*
X-83896Y-1387472D01*
X-59930Y-1363505D01*
X-59929Y-1363505D01*
X-59865Y-1363350D01*
X-33031Y-1336515D01*
X-21308D01*
X7981Y-1307226D01*
Y-1265805D01*
X-21308Y-1236516D01*
X-62729D01*
X-89253Y-1263040D01*
X-117291Y-1235002D01*
X-158712D01*
X-187051Y-1263340D01*
X-189861Y-1264415D01*
X-203002Y-1265289D01*
X-217528Y-1250763D01*
Y-1142555D01*
X-227039Y-1119594D01*
X-306641Y-1039993D01*
X-329602Y-1030482D01*
X-1893438D01*
X-1911500Y-1012420D01*
Y-990789D01*
X-1940789Y-961500D01*
D02*
G37*
G36*
X100711Y-1020000D02*
X59289D01*
X30000Y-1049289D01*
Y-1090711D01*
X59289Y-1120000D01*
X100711D01*
X130000Y-1090711D01*
Y-1049289D01*
X100711Y-1020000D01*
D02*
G37*
G36*
X-3411349Y-976653D02*
X-3452770D01*
X-3482059Y-1005942D01*
Y-1047363D01*
X-3453710Y-1075712D01*
X-3479829Y-1101831D01*
Y-1143253D01*
X-3450540Y-1172542D01*
X-3409119D01*
X-3379829Y-1143253D01*
Y-1101831D01*
X-3408178Y-1073482D01*
X-3382060Y-1047363D01*
Y-1005942D01*
X-3411349Y-976653D01*
D02*
G37*
G36*
X910711Y-1220000D02*
X869289D01*
X840000Y-1249289D01*
Y-1290711D01*
X869289Y-1320000D01*
X910711D01*
X940000Y-1290711D01*
Y-1249289D01*
X910711Y-1220000D01*
D02*
G37*
G36*
X1202364Y-1223761D02*
X1160943D01*
X1131654Y-1253051D01*
Y-1294472D01*
X1160943Y-1323761D01*
X1202364D01*
X1231653Y-1294472D01*
Y-1253051D01*
X1202364Y-1223761D01*
D02*
G37*
G36*
X-3004289Y-1635008D02*
X-3045710D01*
X-3075000Y-1664297D01*
Y-1705718D01*
X-3047189Y-1733528D01*
X-3046374Y-1741462D01*
X-3047189Y-1749395D01*
X-3075000Y-1777205D01*
Y-1818626D01*
X-3045710Y-1847916D01*
X-3004289D01*
X-2975000Y-1818626D01*
Y-1777205D01*
X-3002810Y-1749395D01*
X-3003625Y-1741462D01*
X-3002810Y-1733528D01*
X-2975000Y-1705718D01*
Y-1664297D01*
X-3004289Y-1635008D01*
D02*
G37*
G36*
X257167Y-1900931D02*
X-643304D01*
X-654785Y-1905687D01*
X-659540Y-1917167D01*
Y-2117304D01*
X-654785Y-2128785D01*
X-643304Y-2133540D01*
X257167D01*
X268648Y-2128785D01*
X273403Y-2117304D01*
Y-1917167D01*
X268648Y-1905687D01*
X257167Y-1900931D01*
D02*
G37*
G36*
X2673879Y-2117485D02*
X1828988D01*
X1810611Y-2125097D01*
X1796545Y-2139163D01*
X1788933Y-2157540D01*
Y-2305171D01*
X1796448Y-2323313D01*
X1810334Y-2337199D01*
X1828476Y-2344714D01*
X2672094D01*
X2691290Y-2336762D01*
X2705982Y-2322070D01*
X2713933Y-2302874D01*
Y-2157540D01*
X2706321Y-2139163D01*
X2692256Y-2125097D01*
X2673879Y-2117485D01*
D02*
G37*
G36*
X3697739Y-2360000D02*
X3670000D01*
Y-2580000D01*
X3890000D01*
Y-2552261D01*
X3853462Y-2464051D01*
X3785949Y-2396538D01*
X3697739Y-2360000D01*
D02*
G37*
G36*
X3630000D02*
X3602261D01*
X3514051Y-2396538D01*
X3446538Y-2464051D01*
X3410000Y-2552261D01*
Y-2580000D01*
X3630000D01*
Y-2360000D01*
D02*
G37*
G36*
X337500Y-2439161D02*
X-617473D01*
X-626662Y-2442968D01*
X-633694Y-2450000D01*
X-637500Y-2459189D01*
Y-2619134D01*
X-633694Y-2628323D01*
X-626662Y-2635356D01*
X-617473Y-2639162D01*
X317473D01*
X326661Y-2635356D01*
X333694Y-2628323D01*
X337500Y-2619134D01*
Y-2614162D01*
Y-2439161D01*
D02*
G37*
G36*
X3890000Y-2620000D02*
X3670000D01*
Y-2840000D01*
X3697739D01*
X3785949Y-2803462D01*
X3853462Y-2735949D01*
X3890000Y-2647739D01*
Y-2620000D01*
D02*
G37*
G36*
X3630000D02*
X3410000D01*
Y-2647739D01*
X3446538Y-2735949D01*
X3514051Y-2803462D01*
X3602261Y-2840000D01*
X3630000D01*
Y-2620000D01*
D02*
G37*
%LPD*%
G36*
X-1929849Y-1085914D02*
X-1906888Y-1095425D01*
X-738732D01*
X-732992Y-1109283D01*
X-737998Y-1114289D01*
Y-1155710D01*
X-710331Y-1183378D01*
X-712624Y-1198378D01*
X-1857700D01*
X-1979578Y-1076499D01*
X-1973365Y-1061500D01*
X-1954264D01*
X-1929849Y-1085914D01*
D02*
G37*
G36*
X-2741815Y-1085503D02*
X-2724680D01*
X-2634811Y-1175371D01*
X-2623927Y-1201649D01*
X-2503788Y-1321787D01*
X-2477001Y-1332883D01*
X-2463934Y-1327471D01*
X-620382D01*
X-560381Y-1387472D01*
X-560502Y-1390090D01*
X-564058Y-1402472D01*
X-2452108D01*
X-2758186Y-1096394D01*
X-2758160Y-1090371D01*
X-2743133Y-1084184D01*
X-2741815Y-1085503D01*
D02*
G37*
D10*
X-2597139Y-1174861D02*
Y-1159468D01*
Y-1174861D02*
X-2477001Y-1294999D01*
X-2721104Y-1035503D02*
X-2597139Y-1159468D01*
X-1460000Y2040000D02*
X-1134368Y1714368D01*
Y1273663D02*
Y1714368D01*
X-115001Y-1365001D02*
X-86717Y-1336717D01*
Y-1336626D01*
X-42018Y-1291928D01*
Y-1286516D01*
X-3122921Y2422702D02*
X-2956269Y2256050D01*
Y2122610D02*
Y2256050D01*
X-3003635Y2075245D02*
X-2956269Y2122610D01*
X-3127006Y2075245D02*
X-3003635D01*
X-2093827Y2563827D02*
X-2090000Y2560000D01*
X-2148356Y2657208D02*
Y2657208D01*
X-2093827Y2563827D02*
Y2602679D01*
X-2148356Y2657208D02*
X-2093827Y2602679D01*
X-2241147Y2749999D02*
X-2148356Y2657208D01*
X-2543108Y2749999D02*
X-2241147D01*
X-2571776Y2305886D02*
X-2235160Y2642501D01*
X-2232644D01*
X-2573168Y2260000D02*
X-2571776Y2261392D01*
Y2305886D01*
X-3330000Y1040000D02*
X-3230000Y940000D01*
X-2300000D01*
X-1630000Y1610000D01*
Y1825000D01*
D52*
X-2977500Y-1029291D02*
Y402500D01*
X-2794709Y-1105793D02*
X-2465558Y-1434944D01*
X-2850500Y-1034305D02*
X-2794709Y-1090096D01*
Y-1105793D02*
Y-1090096D01*
X-2888286Y1054140D02*
X-2275000Y1667426D01*
Y1822499D01*
X-3180146Y1054140D02*
X-2888286D01*
X-2477001Y-1294999D02*
X-606932D01*
X-2465558Y-1434944D02*
X71898D01*
X207673Y-1299169D01*
Y-1295924D01*
X-3400000Y1225000D02*
X-2180000Y2445000D01*
X-3400000Y825000D02*
Y1225000D01*
X-2180000Y2445000D02*
Y2530000D01*
X-606932Y-1294999D02*
X-536930Y-1365001D01*
X-115001D01*
X-1871150Y-1230849D02*
X-579158D01*
X-2088500Y-1013500D02*
X-1871150Y-1230849D01*
X-828094Y-946906D02*
X-825000Y-950000D01*
X-1834500Y-946906D02*
X-828094D01*
X-1290500Y-317499D02*
X-1041716Y-68716D01*
X-168716D02*
X-100000Y0D01*
X-1041716Y-68716D02*
X-168716D01*
X-157938Y184938D02*
X-100999Y127999D01*
X-1290500Y63501D02*
X-1169062Y184938D01*
X-157938D01*
X-250000Y-1289001D02*
Y-1142555D01*
X-1906888Y-1062953D02*
X-329602D01*
X-250000Y-1142555D01*
X-1958342Y-1011500D02*
X-1906888Y-1062953D01*
X-1961500Y-1011500D02*
X-1958342D01*
X1919381Y-684999D02*
X1927499D01*
X1899574Y-704807D02*
X1919381Y-684999D01*
X-2143794Y-704807D02*
X1899574D01*
X-2462432Y-1023445D02*
X-2143794Y-704807D01*
X-2467498Y-1023445D02*
X-2462432D01*
X-2690000Y1140000D02*
X-2234998D01*
X-1826913Y1548085D01*
X-3400000Y825000D02*
X-2977500Y402500D01*
X-3182573Y1056568D02*
X-3180146Y1054140D01*
X-1826913Y1548085D02*
Y1798087D01*
X-1825000Y1800000D01*
D57*
X-3387588Y2160265D02*
X-3094086D01*
X-3392321Y2155532D02*
X-3387588Y2160265D01*
X-3094086D02*
X-3089352Y2164998D01*
D60*
X2625000Y-2225000D02*
D03*
D61*
X1879998D02*
D03*
D62*
X2870001Y197000D02*
D03*
D63*
Y-57000D02*
D03*
D64*
X950000Y865500D02*
D03*
D65*
Y377500D02*
D03*
D66*
X272000Y-2527002D02*
D03*
X-527998D02*
D03*
D67*
X-3747999Y1827998D02*
D03*
Y2691999D02*
D03*
D68*
X-3379999Y1971000D02*
D03*
Y2549002D02*
D03*
D69*
X-3330001Y2691999D02*
D03*
Y1827998D02*
D03*
D70*
X3499998Y1399998D02*
D03*
Y999999D02*
D03*
Y599999D02*
D03*
Y200000D02*
D03*
Y-199999D02*
D03*
Y-599998D02*
D03*
Y-999997D02*
D03*
Y-1400002D02*
D03*
X3800002Y1399998D02*
D03*
Y999999D02*
D03*
Y599999D02*
D03*
Y200000D02*
D03*
Y-199999D02*
D03*
Y-599998D02*
D03*
Y-999997D02*
D03*
D71*
Y-1400002D02*
D03*
D72*
X3650000Y-2600000D02*
D03*
Y2600000D02*
D03*
D73*
X-2977500Y-1029291D02*
D03*
X-2850500Y-1034305D02*
D03*
X-2721104Y-1035503D02*
D03*
X-1134368Y1273663D02*
D03*
X-3121893Y1370606D02*
D03*
X-2976760Y1515740D02*
D03*
X-3803930Y1659864D02*
D03*
X1022140Y1526673D02*
D03*
X-2275000Y1822499D02*
D03*
X-1120719Y-1502715D02*
D03*
X-987834Y-1499943D02*
D03*
X-818000Y-1359999D02*
D03*
X-1110502Y-845135D02*
D03*
X-825000Y-950000D02*
D03*
X-870380Y-3716D02*
D03*
X-873790Y115626D02*
D03*
X-345571Y-1292649D02*
D03*
X-250000Y-1289001D02*
D03*
X-138002Y-1285001D02*
D03*
X-42018Y-1286516D02*
D03*
X2047352Y1866063D02*
D03*
X-1834500Y-946906D02*
D03*
X-687998Y-1135000D02*
D03*
X-459998D02*
D03*
X-2411241Y2318655D02*
D03*
X-856199Y-143903D02*
D03*
X-1250000Y-1150000D02*
D03*
X-3157221Y1911761D02*
D03*
X-3097489Y1986279D02*
D03*
X-1392584Y-2704002D02*
D03*
X-3343561Y-873513D02*
D03*
X-3330000Y875000D02*
D03*
X-3122921Y2422702D02*
D03*
X-3127006Y2075245D02*
D03*
X857498Y2038149D02*
D03*
X592500Y2028951D02*
D03*
X707501Y2038149D02*
D03*
X2309999Y1259999D02*
D03*
X2084510Y-915000D02*
D03*
X2536300Y400896D02*
D03*
X2254616Y529826D02*
D03*
X1181653Y-1273761D02*
D03*
X494174Y-1523075D02*
D03*
X207673Y-1295924D02*
D03*
X-579158Y-1230849D02*
D03*
X-2467498Y-1023445D02*
D03*
X-3025000Y-1685008D02*
D03*
X-2975000Y-1975000D02*
D03*
X-3150000Y-2493335D02*
D03*
X-3105479Y-1314490D02*
D03*
X-3432059Y-1026653D02*
D03*
X-3429829Y-1122542D02*
D03*
X-2927498Y-2715000D02*
D03*
X-3330000Y1040000D02*
D03*
X-900000Y2341314D02*
D03*
X1860676Y-1261065D02*
D03*
X1927499Y-684999D02*
D03*
X-2757500Y1345000D02*
D03*
X-3392321Y2155532D02*
D03*
X-3089352Y2164998D02*
D03*
X-3074003Y2261392D02*
D03*
X1604998Y-995000D02*
D03*
Y-884997D02*
D03*
X1715000D02*
D03*
Y-995000D02*
D03*
X-3170000Y2580000D02*
D03*
X-627499Y-516801D02*
D03*
X-3266765Y-1461812D02*
D03*
X-3475605Y-2300000D02*
D03*
X1437778Y-595001D02*
D03*
X1330001D02*
D03*
X2129381Y-1256267D02*
D03*
X1990916Y-1257638D02*
D03*
X1535000Y-1247499D02*
D03*
X660000Y762999D02*
D03*
X1268612Y120409D02*
D03*
X1267431Y1131215D02*
D03*
X1382387Y1086799D02*
D03*
X1852100Y1512502D02*
D03*
X1650000Y1573949D02*
D03*
X1455000Y1575523D02*
D03*
X1247499Y1573949D02*
D03*
X1882607Y1708901D02*
D03*
X2570000Y2877500D02*
D03*
X2906250D02*
D03*
X2400000D02*
D03*
X2762500Y2875000D02*
D03*
X3063751D02*
D03*
X-2460000Y107894D02*
D03*
X-2743335Y-10002D02*
D03*
X-2751935Y-210000D02*
D03*
X-2600000Y-422086D02*
D03*
X-2320000D02*
D03*
X-2150000Y-220000D02*
D03*
Y-50000D02*
D03*
X-2090000Y2560000D02*
D03*
X-2180000Y2530000D02*
D03*
X-2232644Y2642501D02*
D03*
X-2573168Y2260000D02*
D03*
X-2690000Y1140000D02*
D03*
X-3400000Y1660002D02*
D03*
X-3182573Y1056568D02*
D03*
X-3170000Y2750000D02*
D03*
X-3330001Y2860000D02*
D03*
X1030000Y-2710000D02*
D03*
X750000Y-2280000D02*
D03*
X-820000Y-2260000D02*
D03*
X80000Y-1070000D02*
D03*
X890000Y-1270000D02*
D03*
X-1980000Y2355000D02*
D03*
X-2584706Y1822511D02*
D03*
X-3098303Y1836949D02*
D03*
Y1741452D02*
D03*
X-3025000Y-1797916D02*
D03*
X-893286Y499998D02*
D03*
X970000Y-840000D02*
D03*
X1774300Y-250000D02*
D03*
X910002Y1386022D02*
D03*
X1022140D02*
D03*
X-990000Y-288201D02*
D03*
X-876863Y1926920D02*
D03*
X-440000Y2200000D02*
D03*
X1424897Y883049D02*
D03*
X1427675Y794694D02*
D03*
X1097500Y1874059D02*
D03*
Y2000000D02*
D03*
Y2101799D02*
D03*
X1002158Y1997500D02*
D03*
X1011109Y1874059D02*
D03*
Y2100000D02*
D03*
X-1460000Y2040000D02*
D03*
X-1630000Y1825000D02*
D03*
X-1961500Y-1011500D02*
D03*
X-2088500Y-1013500D02*
D03*
X-1290500Y63501D02*
D03*
X-2543108Y2749999D02*
D03*
X-1825000Y1800000D02*
D03*
X-2088500Y1825000D02*
D03*
X-1290500Y-317499D02*
D03*
X-100999Y127999D02*
D03*
X-100000Y0D02*
D03*
%TF.MD5,bdd3e856ba0fe5ccde3d4647ec8dd473*%
M02*
